<svg width="28" height="28" viewBox="0 0 28 28" fill="none" xmlns="http://www.w3.org/2000/svg">
<path fill-rule="evenodd" clip-rule="evenodd" d="M3.81353 4.7458C3.81619 4.7458 3.74953 4.81513 3.66553 4.8978C3.34286 5.21113 2.67486 5.86313 2.66813 7.22713C2.65753 9.13513 3.91219 12.6778 9.95353 18.7178C15.9669 24.7285 19.5042 25.9978 21.4162 25.9978H21.4442C22.8082 25.9911 23.4589 25.3218 23.7735 25.0005C23.8695 24.9018 23.9469 24.8298 24.0015 24.7845C25.3295 23.4485 26.0095 22.4538 26.0029 21.8165C25.9935 21.1658 25.1842 20.3965 24.0655 19.3325C23.7095 18.9938 23.3229 18.6258 22.9149 18.2178C21.8575 17.1631 21.3335 17.3431 20.1815 17.7485C18.5882 18.3071 16.4015 19.0671 13.0042 15.6685C9.60153 12.2685 10.3629 10.0845 10.9202 8.49113C11.3229 7.33913 11.5069 6.8138 10.4482 5.75513C10.0335 5.3418 9.66153 4.9498 9.31886 4.5898C8.26153 3.4778 7.49886 2.6738 6.85219 2.66447H6.84153C6.20286 2.66447 5.21086 3.34713 3.80686 4.75113C3.81086 4.74713 3.81353 4.7458 3.81353 4.7458ZM21.4175 27.9978C18.0949 27.9978 13.7629 25.3525 8.54019 20.1325C3.29753 14.8911 0.648192 10.5458 0.66808 7.21647C0.680192 5.01647 1.83353 3.8898 2.26686 3.46713C2.28953 3.43913 2.36686 3.36313 2.39353 3.33647C4.30553 1.42313 5.59486 0.649799 6.87753 0.664261C8.36686 0.684466 9.42686 1.79913 10.7682 3.21113C11.1002 3.56047 11.4602 3.94047 11.8615 4.34047C13.8082 6.28713 13.2535 7.87513 12.8082 9.1498C12.3229 10.5405 11.9029 11.7405 14.4175 14.2551C16.9349 16.7698 18.1349 16.3498 19.5202 15.8605C20.7962 15.4151 22.3802 14.8578 24.3295 16.8045C24.7242 17.1991 25.0989 17.5551 25.4442 17.8845C26.8629 19.2325 27.9829 20.2978 28.0018 21.7911C28.0175 23.0645 27.2442 24.3618 25.3349 26.2725L24.4895 25.6991L25.2042 26.3978C24.7815 26.8311 23.6562 27.9858 21.4549 27.9978H21.4175Z" fill="#F2F2F2"/>
</svg>
