<svg width="23" height="27" viewBox="0 0 23 27" fill="none" xmlns="http://www.w3.org/2000/svg">
<path fill-rule="evenodd" clip-rule="evenodd" d="M11.332 0.667969C17.3974 0.667969 22.332 5.63997 22.332 11.752C22.332 19.2653 13.724 26.668 11.332 26.668C8.94003 26.668 0.332031 19.2653 0.332031 11.752C0.332031 5.63997 5.2667 0.667969 11.332 0.667969ZM11.332 2.66797C6.36936 2.66797 2.33203 6.74397 2.33203 11.752C2.33203 18.124 9.8307 24.332 11.332 24.6626C12.8334 24.3306 20.332 18.1226 20.332 11.752C20.332 6.74397 16.2947 2.66797 11.332 2.66797ZM11.3334 7.33464C13.7227 7.33464 15.6667 9.27864 15.6667 11.6693C15.6667 14.0586 13.7227 16.0013 11.3334 16.0013C8.94403 16.0013 7.00003 14.0586 7.00003 11.6693C7.00003 9.27864 8.94403 7.33464 11.3334 7.33464ZM11.3334 9.33464C10.0467 9.33464 9.00003 10.3813 9.00003 11.6693C9.00003 12.956 10.0467 14.0013 11.3334 14.0013C12.62 14.0013 13.6667 12.956 13.6667 11.6693C13.6667 10.3813 12.62 9.33464 11.3334 9.33464Z" fill="#F2F2F2"/>
</svg>
