<svg width="250" height="72" viewBox="0 0 250 72" fill="none" xmlns="http://www.w3.org/2000/svg">
<path d="M83.5044 45.7402V17.9609H78.9492V45.7402H83.5044Z" fill="white"/>
<path d="M86.293 36.4812C86.293 42.1566 90.1014 46.189 95.8888 46.189C101.676 46.189 105.485 42.1566 105.485 36.4812C105.485 30.8059 101.676 26.7734 95.8888 26.7734C90.1014 26.7734 86.293 30.8059 86.293 36.4812ZM90.8855 36.4812C90.8855 33.1582 92.8644 30.8432 95.8888 30.8432C98.9131 30.8432 100.892 33.1582 100.892 36.4812C100.892 39.7669 98.9131 42.1192 95.8888 42.1192C92.8644 42.1192 90.8855 39.7669 90.8855 36.4812Z" fill="white"/>
<path d="M107.016 36.1083C107.016 41.4849 110.488 45.3681 115.678 45.3681C118.366 45.3681 120.681 44.2853 121.839 42.4931V45.6294C121.839 48.6538 119.934 50.67 116.761 50.67C113.923 50.67 111.982 49.2885 111.72 46.8616H107.128C107.725 51.6781 111.421 54.8145 116.499 54.8145C122.473 54.8145 126.282 50.894 126.282 44.808V27.2966H122.249L121.988 29.7982C120.868 27.8567 118.553 26.6992 115.827 26.6992C110.563 26.6992 107.016 30.6943 107.016 36.1083ZM111.645 35.9963C111.645 32.9346 113.587 30.6943 116.462 30.6943C119.598 30.6943 121.689 32.9719 121.689 35.9963C121.689 39.058 119.598 41.4103 116.462 41.4103C113.624 41.4103 111.645 39.0953 111.645 35.9963Z" fill="white"/>
<path d="M128.535 36.4812C128.535 42.1566 132.344 46.189 138.131 46.189C143.918 46.189 147.727 42.1566 147.727 36.4812C147.727 30.8059 143.918 26.7734 138.131 26.7734C132.344 26.7734 128.535 30.8059 128.535 36.4812ZM133.128 36.4812C133.128 33.1582 135.107 30.8432 138.131 30.8432C141.155 30.8432 143.134 33.1582 143.134 36.4812C143.134 39.7669 141.155 42.1192 138.131 42.1192C135.107 42.1192 133.128 39.7669 133.128 36.4812Z" fill="white"/>
<path d="M152.657 23.5233C154.151 23.5233 155.383 22.3285 155.383 20.7977C155.383 19.3042 154.151 18.1094 152.657 18.1094C151.126 18.1094 149.969 19.3042 149.969 20.7977C149.969 22.3285 151.126 23.5233 152.657 23.5233ZM150.379 45.7392H154.935V27.2944H150.379V45.7392Z" fill="white"/>
<path d="M158.926 54.2896H163.369V43.2003C164.527 45.1045 167.028 46.2246 169.791 46.2246C175.243 46.2246 178.491 42.0428 178.416 36.2928C178.304 30.5055 174.981 26.7344 169.754 26.7344C166.954 26.7344 164.415 27.9665 163.295 30.0948L163.033 27.2944H158.926V54.2896ZM163.556 36.5168C163.556 33.1938 165.572 30.8789 168.746 30.8789C171.92 30.8789 173.824 33.2311 173.824 36.5168C173.824 39.8026 171.92 42.1175 168.746 42.1175C165.572 42.1175 163.556 39.8399 163.556 36.5168Z" fill="white"/>
<path d="M179.574 40.2133C179.724 43.8724 182.561 46.2246 186.967 46.2246C191.298 46.2246 194.248 43.9097 194.248 40.3253C194.248 37.6743 192.605 35.8821 189.581 35.1354L186.332 34.3513C184.951 33.9779 184.017 33.4925 184.017 32.2977C184.017 31.0282 185.026 30.1321 186.668 30.1321C188.386 30.1321 189.506 31.1029 189.506 32.7084H193.651C193.501 29.0493 190.776 26.7344 186.78 26.7344C182.823 26.7344 179.873 29.0493 179.873 32.5591C179.873 34.9487 181.254 36.9276 184.801 37.861L188.013 38.6824C189.207 39.0185 189.954 39.5785 189.954 40.624C189.954 42.0802 188.573 42.7522 186.892 42.7522C184.876 42.7522 183.719 41.8188 183.719 40.2133H179.574Z" fill="white"/>
<path d="M203.696 46.2232C206.197 46.2232 208.587 45.0657 209.67 43.3482L209.968 45.7378H214.225V27.293H209.67V36.9634C209.67 40.2865 208.4 42.1534 205.413 42.1534C203.098 42.1534 201.493 41.0332 201.493 37.2248V27.293H196.938V38.8303C196.938 43.2362 199.327 46.2232 203.696 46.2232Z" fill="white"/>
<path d="M222.801 45.7392V35.1354C222.801 32.1483 224.556 30.7295 226.722 30.7295C228.887 30.7295 230.306 32.111 230.306 34.7246V45.7392H234.749V35.1727C234.749 32.1483 236.467 30.7295 238.632 30.7295C240.835 30.7295 242.254 32.111 242.254 34.7246V45.7392H246.66V33.6792C246.66 29.4227 244.308 26.7344 239.827 26.7344C237.027 26.7344 234.824 28.0785 233.928 30.2441C232.92 28.0785 230.904 26.7344 227.842 26.7344C225.676 26.7344 223.735 27.7425 222.652 29.3854L222.428 27.2944H218.246V45.7392H222.801Z" fill="white"/>
<path fill-rule="evenodd" clip-rule="evenodd" d="M3.24609 36.7054L3.24923 36.3801L3.25569 36.0546L3.26549 35.7291L3.27863 35.4037L3.29512 35.0782L3.31494 34.7527L3.33812 34.4274L3.36463 34.102L3.3945 33.7769L3.42772 33.4517L3.46428 33.127L3.50416 32.8024L3.54741 32.478L3.594 32.154L3.64392 31.8303L3.69718 31.5071L3.75379 31.184L3.81371 30.8616L3.87697 30.5395L3.94356 30.2179L4.01348 29.8968L4.08669 29.5764L4.16325 29.2566L4.24309 28.9373L4.32626 28.6187L4.4127 28.3007L4.50246 27.9835L4.59549 27.6671L4.69181 27.3515L4.79139 27.0368L4.89424 26.7228L5.00036 26.4097L5.10973 26.0975L5.22233 25.7863L5.33817 25.4761L5.45723 25.1668L5.57952 24.8587L5.70501 24.5515L5.83369 24.2457L5.96556 23.9408L6.10061 23.6371L6.23882 23.3347L6.38018 23.0335L6.5247 22.7335L6.67234 22.4348L6.82311 22.1376L6.97697 21.8416L7.13393 21.547L7.29397 21.254L7.45707 20.9623L7.62324 20.672L7.79242 20.3834L7.96465 20.0962L8.13988 19.8106L8.31811 19.5267L8.49931 19.2444L8.68348 18.9639L8.87061 18.6848L9.06066 18.4077L9.25363 18.1322L9.44949 17.8585L9.64822 17.5868L9.84983 17.3166L10.0543 17.0486L10.2616 16.7824L10.4716 16.518L10.6845 16.2557L10.9002 15.9953L11.1186 15.737L11.3397 15.4806L11.5635 15.2264L11.7901 14.9743L12.0193 14.7243L12.2511 14.4764L12.4856 14.2307L12.7227 13.9873L12.9624 13.746L13.2046 13.507L13.4494 13.2703L13.6967 13.0359L13.9465 12.8039L14.1988 12.5742L14.4535 12.3469L14.7107 12.1219L14.9703 11.8995L15.2322 11.6795L15.4965 11.4619L15.7631 11.2469L16.032 11.0344L16.3032 10.8245L16.5766 10.6172L16.8524 10.4124L17.1303 10.2103L17.4104 10.0108L17.6925 9.81404L17.9769 9.61994L18.2633 9.42852L18.5518 9.23987L18.8424 9.05396L19.1351 8.87084L19.4295 8.69052L19.7261 8.513L20.0245 8.33834L20.3248 8.16654L20.6271 7.99761L20.9312 7.83159L21.237 7.66847L21.5446 7.50831L21.854 7.35109L22.1652 7.19685L22.4781 7.0456L22.7927 6.89735L23.1088 6.75214L23.4266 6.60998L23.7459 6.47088L24.0669 6.33485L24.3893 6.20193L24.7131 6.07211L25.0385 5.94541L25.3652 5.82187L25.6933 5.70146L26.0229 5.58425L26.3537 5.47021L26.6859 5.35937L27.0191 5.25175L27.3537 5.14735L27.6896 5.0462L28.0266 4.94831L28.3646 4.85369L28.7039 4.76232L29.0441 4.67425L29.3854 4.5895L29.7276 4.50807L30.0709 4.42994L30.4151 4.35516L30.7601 4.28372L31.106 4.21563L31.4527 4.15093L31.8003 4.08958L32.1487 4.03162L32.4977 3.97706L32.8474 3.92589L33.1977 3.87815L33.5487 3.83381L33.9003 3.79291L34.2524 3.75541L34.605 3.72138L34.9581 3.69078L35.3117 3.66362L35.6656 3.63994L37.5688 3.53125L37.6774 12.7012L37.7396 12.7005L38.0024 12.7001L38.2653 12.7023L38.5281 12.7071L38.7912 12.7145L39.0542 12.7244L39.3174 12.737L39.5805 12.7521L39.8437 12.7699L40.1066 12.7902L40.3698 12.8131L40.6326 12.8386L40.8954 12.8667L41.1579 12.8974L41.4204 12.9307L41.6826 12.9666L41.9446 13.0051L42.2063 13.0462L42.4678 13.0898L42.7289 13.1361L42.9898 13.1849L43.2502 13.2364L43.5101 13.2904L43.7698 13.347L44.0289 13.4062L44.2875 13.4679L44.5458 13.5322L44.8034 13.5991L45.0604 13.6686L45.3169 13.7406L45.5729 13.8151L45.8281 13.8922L46.0826 13.9719L46.3365 14.0541L46.5898 14.1388L46.8422 14.2261L47.0938 14.3159L47.3448 14.4082L47.5948 14.503L47.844 14.6003L48.0924 14.7001L48.3398 14.8024L48.5862 14.9072L48.8318 15.0145L49.0765 15.1242L49.32 15.2364L49.5625 15.351L49.8041 15.468L50.0445 15.5875L50.2838 15.7094L50.5219 15.8338L50.7589 15.9605L50.9948 16.0896L51.2294 16.2211L51.4628 16.355L51.695 16.4912L51.9258 16.6298L52.1553 16.7707L52.3836 16.9139L52.6104 17.0595L52.8359 17.2072L53.0599 17.3574L53.2826 17.5098L53.5037 17.6644L53.7235 17.8213L53.9417 17.9804L54.1583 18.1418L54.3735 18.3054L54.587 18.4712L54.799 18.6392L55.0092 18.8092L55.218 18.9814L55.425 19.1559L55.6303 19.3324L55.8341 19.511L56.036 19.6916L56.236 19.8744L56.4344 20.0593L56.631 20.2462L56.8258 20.435L57.0187 20.6259L57.2097 20.8188L57.3989 21.0137L57.5862 21.2105L57.7714 21.4092L57.9549 21.6098L58.1362 21.8124L58.3156 22.0168L58.493 22.2231L58.6683 22.4312L58.8417 22.6412L59.013 22.853L59.1821 23.0665L59.3492 23.2817L59.5141 23.4988L59.6769 23.7176L59.8375 23.9381L59.9959 24.1603L60.1521 24.3842L60.3062 24.6095L60.4579 24.8366L60.6075 25.0653L60.7547 25.2957L60.8995 25.5275L61.0422 25.7608L61.1825 25.9957L61.3204 26.2321L61.456 26.4699L61.5893 26.7092L61.7201 26.9499L61.8485 27.192L61.9745 27.4355L62.098 27.6803L62.2191 27.9264L62.3378 28.1739L62.454 28.4226L62.5677 28.6726L62.6789 28.9239L62.7875 29.1764L62.8935 29.4301L62.9971 29.6848L63.098 29.9408L63.1964 30.1978L63.2922 30.4561L63.3854 30.7152L63.476 30.9756L63.5639 31.2368L63.6493 31.4991L63.732 31.7623L63.812 32.0264L63.8893 32.2915L63.9639 32.5574L64.0359 32.8243L64.1052 33.092L64.1716 33.3603L64.2355 33.6296L64.2966 33.8996L64.3549 34.1704L64.4105 34.4416L64.4633 34.7139L64.5133 34.9866L64.5607 35.26L64.6052 35.5338L64.6469 35.8084L64.6859 36.0835L64.7219 36.359L64.7552 36.6351L64.7857 36.9116L64.8133 37.1886L64.8381 37.4658L64.8602 37.7436L64.8794 38.0217L64.8956 38.3001L64.9091 38.5787L64.9198 38.8577L64.9274 39.1368L64.9325 39.4162L64.9344 39.6957L64.9336 39.9754L64.9299 40.2553L64.9232 40.5353L64.9138 40.8152L64.9014 41.0952L64.8864 41.3752L64.8682 41.6553L64.8472 41.9353L64.8234 42.2152L64.7966 42.495L64.767 42.7748L64.7344 43.0541L64.699 43.3335L64.6609 43.6126L64.6196 43.8915L64.5756 44.17L64.5287 44.4483L64.4789 44.7262L64.4263 45.0038L64.3708 45.2811L64.3123 45.5579L64.251 45.8342L64.1868 46.1101L64.12 46.3855L64.05 46.6603L63.9773 46.9345L63.9018 47.2082L63.8234 47.4813L63.7422 47.7537L63.6581 48.0256L63.5711 48.2965L63.4815 48.567L63.389 48.8364L63.2935 49.1053L63.1954 49.3733L63.0945 49.6403L62.9907 49.9066L62.8842 50.172L62.775 50.4364L62.663 50.6999L62.5482 50.9626L62.4307 51.2239L62.3104 51.4845L62.1873 51.7439L62.0617 52.0022L61.9331 52.2595L61.8021 52.5155L61.6682 52.7705L61.5318 53.0241L61.3925 53.2767L61.2508 53.5278L61.1063 53.7778L60.9592 54.0265L60.8096 54.2738L60.6573 54.5199L60.5023 54.7644L60.3448 55.0075L60.1849 55.2493L60.0222 55.4895L59.8571 55.7283L59.6894 55.9657L59.5193 56.2014L59.3466 56.4356L59.1714 56.6683L58.9938 56.8993L58.8138 57.1285L58.6313 57.3563L58.4464 57.5822L58.2591 57.8064L58.0693 58.029L57.8773 58.2498L57.6828 58.4688L57.486 58.686L57.287 58.9014L57.0857 59.1148L56.882 59.3265L56.6761 59.5361L56.4678 59.7439L56.2575 59.9498L56.045 60.1536L55.8302 60.3556L55.6133 60.5554L55.3941 60.7533L55.1729 60.9489L54.9497 61.1426L54.7242 61.3343L54.4967 61.5238L54.2672 61.711L54.0357 61.8962L53.8021 62.0791L53.5665 62.2598L53.329 62.4382L53.0896 62.6145L52.8484 62.7886L52.605 62.9601L52.3599 63.1296L52.113 63.2967L51.8643 63.4613L51.6136 63.6236L51.3614 63.7837L51.1073 63.9412L50.8514 64.0963L50.5938 64.2489L50.3346 64.3993L50.0739 64.547L49.8112 64.6921L49.5472 64.835L49.2815 64.9751L49.0143 65.1127L48.7454 65.248L48.4752 65.3804L48.2034 65.5103L47.9302 65.6377L47.6555 65.7624L47.3795 65.8845L47.1021 66.0038L46.8234 66.1205L46.5433 66.2347L46.262 66.346L45.9794 66.4546L45.6954 66.5606L45.4104 66.6637L45.124 66.7642L44.8367 66.8618L44.5482 66.9567L44.2584 67.0488L43.9677 67.1381L43.676 67.2246L43.3833 67.3082L43.0894 67.389L42.7948 67.4671L42.499 67.5421L42.2026 67.6144L41.9052 67.6838L41.6068 67.7502L41.3078 67.8139L41.0079 67.8746L40.7073 67.9324L40.406 67.9873L40.104 68.039L39.8013 68.0881L39.498 68.1342L39.194 68.1772L38.8896 68.2173L38.5846 68.2545L38.2789 68.2886L37.9729 68.3197L37.6664 68.348L37.3596 68.3731L37.0523 68.3954L36.7446 68.4145L36.4365 68.4308L36.1282 68.4439L35.8198 68.454L35.5109 68.4611L35.2019 68.4652L34.8927 68.4663L34.5834 68.4644L34.274 68.4593L33.9644 68.4514L33.6549 68.4402L33.3453 68.4261L33.0357 68.409L32.7263 68.3887L32.4167 68.3655L32.1075 68.3392L31.7982 68.3098L31.4891 68.2775L31.1803 68.2421L30.8717 68.2037L30.5633 68.1621L30.2553 68.1174L29.9476 68.0699L29.6402 68.0192L29.3333 67.9657L29.0266 67.9089L28.7206 67.8491L28.4149 67.7864L28.1099 67.7205L27.8052 67.6517L27.5013 67.5799L27.1979 67.5051L26.8951 67.4272L26.593 67.3463L26.2917 67.2626L25.9911 67.1757L25.6911 67.086L25.392 66.9931L25.0938 66.8973L24.7964 66.7986L24.4998 66.6968L24.2042 66.5921L23.9096 66.4847L23.6159 66.3741L23.3232 66.2606L23.0316 66.1442L22.7411 66.0249L22.4516 65.9027L22.1633 65.7777L21.8761 65.6498L21.5901 65.5189L21.3053 65.3851L21.0219 65.2486L20.7398 65.1092L20.4588 64.967L20.1792 64.822L19.9011 64.6741L19.6242 64.5236L19.3489 64.3702L19.075 64.214L18.8026 64.0551L18.5316 63.8934L18.2623 63.7291L17.9945 63.5619L17.7282 63.3923L17.4638 63.2197L17.2008 63.0447L16.9396 62.8668L16.6802 62.6864L16.4224 62.5035L16.1664 62.3178L15.9122 62.1296L15.6598 61.9387L15.4093 61.7454L15.1607 61.5496L14.914 61.3511L14.6692 61.1502L14.4263 60.9468L14.1855 60.741L13.9466 60.5327L13.7098 60.3218L13.4751 60.1087L13.2424 59.8933L13.0119 59.6752L12.7835 59.4551L12.5573 59.2324L12.3332 59.0075L12.1114 58.7804L11.8918 58.5509L11.6744 58.3192L11.4594 58.0853L11.2467 57.8491L11.0363 57.6108L10.8282 57.3704L10.6225 57.1277L10.4193 56.883L10.2184 56.6361L10.0201 56.3873L9.82415 56.1363L9.63072 55.8834L9.43981 55.6283L9.25143 55.3713L9.06562 55.1124L8.88238 54.8515L8.70174 54.5889L8.52372 54.3243L8.34835 54.0577L8.17564 53.7895L8.00559 53.5194L7.83825 53.2475L7.67364 52.9739L7.51176 52.6985L7.35265 52.4215L7.1963 52.1428L7.04275 51.8624L6.89202 51.5803L6.7441 51.2967L6.59905 51.0116L6.45684 50.7249L6.31754 50.4368L6.18113 50.147L6.04762 49.8559L5.91705 49.5632L5.78942 49.2694L5.66476 48.9739L5.54309 48.6774L5.42439 48.3793L5.30871 48.0799L5.19606 47.7795L5.08643 47.4777L4.97986 47.1748L4.87634 46.8707L4.7759 46.5653L4.67856 46.259L4.58431 45.9515L4.49319 45.6431L4.40518 45.3335L4.32031 45.023L4.23859 44.7116L4.16004 44.3993L4.08465 44.086L4.01246 43.7718L3.94345 43.4567L3.87764 43.141L3.81504 42.8244L3.75566 42.5072L3.6995 42.1892L3.6466 41.8705L3.59692 41.5512L3.55051 41.2313L3.50736 40.9106L3.46749 40.5895L3.43088 40.2679L3.39755 39.9459L3.36752 39.6235L3.34079 39.3004L3.31734 38.977L3.29721 38.6533L3.2804 38.3293L3.26689 38.005L3.25669 37.6804L3.24983 37.3556L3.2463 37.0306L3.24609 36.7054ZM34.704 12.8932L34.63 6.64292L34.5597 6.64971L34.237 6.68406L33.9151 6.72153L33.5933 6.76218L33.2729 6.80584L32.9527 6.85269L32.6329 6.90268L32.3141 6.95573L31.9956 7.01195L31.6787 7.07109L31.3614 7.13354L31.0463 7.1988L30.7307 7.26735L30.4167 7.33881L30.1031 7.41346L29.7909 7.49096L29.4795 7.57157L29.169 7.65519L28.8594 7.74183L28.5513 7.83138L28.2437 7.92401L27.9377 8.01951L27.6325 8.11805L27.3289 8.21932L27.0258 8.32378L26.7243 8.43104L26.4243 8.54114L26.1252 8.65424L25.8276 8.7701L25.5316 8.88875L25.2365 9.01045L24.9428 9.13492L24.6506 9.26222L24.3601 9.39221L24.0709 9.52502L23.7834 9.6605L23.4969 9.79898L23.2125 9.93998L22.9295 10.0837L22.6482 10.2302L22.3685 10.3794L22.0907 10.5311L21.8141 10.6856L21.5393 10.8428L21.2669 11.0023L20.9953 11.1648L20.7263 11.3296L20.4591 11.4969L20.1932 11.6669L19.9294 11.8394L19.6675 12.0144L19.4081 12.1915L19.1497 12.3718L18.8938 12.5539L18.6399 12.7386L18.3878 12.9258L18.138 13.1152L17.8904 13.3069L17.6443 13.5013L17.401 13.6976L17.1594 13.8964L16.9201 14.0974L16.6829 14.3007L16.4482 14.506L16.2152 14.7139L15.9849 14.9236L15.7565 15.1357L15.5308 15.3497L15.3072 15.5659L15.086 15.7841L14.8671 16.0045L14.6503 16.2271L14.4364 16.4513L14.2248 16.6774L14.0152 16.9061L13.8084 17.1363L13.6042 17.3681L13.4021 17.6024L13.2029 17.8381L13.0059 18.0759L12.8115 18.3153L12.6198 18.5567L12.4305 18.7998L12.244 19.0444L12.0599 19.2908L11.8784 19.5392L11.6998 19.7887L11.5236 20.0403L11.3502 20.2933L11.1794 20.5478L11.0113 20.804L10.8459 21.0616L10.6833 21.3205L10.5234 21.5811L10.3664 21.8429L10.212 22.1064L10.0603 22.3713L9.91161 22.6373L9.76559 22.9046L9.62236 23.1735L9.48204 23.4434L9.34447 23.7147L9.20986 23.9869L9.07806 24.2605L8.94916 24.5351L8.82307 24.8111L8.69997 25.0879L8.57967 25.366L8.4623 25.645L8.34793 25.9249L8.23642 26.2059L8.12783 26.4879L8.02223 26.7707L7.91955 27.0545L7.81991 27.3389L7.72314 27.6244L7.62937 27.9106L7.53861 28.1976L7.45085 28.4851L7.36601 28.7738L7.28424 29.0627L7.20546 29.3525L7.12967 29.6428L7.05689 29.9338L6.98715 30.2252L6.92043 30.5173L6.85673 30.8098L6.79606 31.1028L6.73843 31.3962L6.68382 31.69L6.63226 31.9842L6.58374 32.2788L6.53827 32.5736L6.49583 32.8687L6.45645 33.1642L6.4201 33.4598L6.38681 33.7556L6.35656 34.0517L6.32937 34.3478L6.30522 34.6439L6.28411 34.9403L6.26606 35.2368L6.25104 35.533L6.23908 35.8295L6.23015 36.1257L6.22428 36.422L6.22142 36.7181L6.22161 37.0142L6.22483 37.31L6.23108 37.6058L6.24035 37.9012L6.25264 38.1963L6.26796 38.4913L6.28627 38.7858L6.3076 39.0801L6.33194 39.3739L6.35928 39.6674L6.38958 39.9606L6.4229 40.2532L6.45918 40.5454L6.49843 40.8369L6.54066 41.128L6.58585 41.4186L6.63397 41.7084L6.68506 41.9976L6.73906 42.2863L6.796 42.5741L6.85585 42.8614L6.91861 43.1478L6.98428 43.4335L7.05283 43.7184L7.12426 44.0025L7.19858 44.2858L7.27572 44.5679L7.35575 44.8494L7.43861 45.13L7.52429 45.4095L7.6128 45.6881L7.70408 45.9655L7.79817 46.242L7.89505 46.5173L7.9947 46.7916L8.09707 47.0647L8.20225 47.3368L8.31009 47.6075L8.42066 47.8772L8.53395 48.1455L8.64991 48.4126L8.76856 48.6785L8.88986 48.9431L9.0138 49.2062L9.14036 49.4681L9.26955 49.7285L9.40132 49.9876L9.53569 50.2452L9.6726 50.5014L9.81208 50.7561L9.95408 51.0092L10.0986 51.2608L10.2456 51.511L10.3951 51.7593L10.547 52.0062L10.7015 52.2515L10.8583 52.495L11.0175 52.7371L11.1792 52.9774L11.3431 53.2158L11.5095 53.4527L11.6782 53.6877L11.8492 53.921L12.0225 54.1525L12.198 54.3821L12.3759 54.6098L12.5559 54.8356L12.7382 55.0597L12.9227 55.2819L13.1092 55.502L13.298 55.7202L13.4889 55.9364L13.682 56.1507L13.8771 56.3629L14.0742 56.5731L14.2734 56.7812L14.4747 56.9874L14.6779 57.1915L14.8831 57.3933L15.0903 57.5931L15.2994 57.7907L15.5104 57.9863L15.7233 58.1796L15.9381 58.3707L16.1546 58.5595L16.373 58.7462L16.5933 58.9306L16.8151 59.1127L17.039 59.2928L17.2643 59.4702L17.4914 59.6455L17.7201 59.8186L17.9506 59.9892L18.1826 60.1574L18.4162 60.3233L18.6513 60.4868L18.8881 60.648L19.1263 60.8066L19.3662 60.9629L19.6073 61.1168L19.85 61.2681L20.0941 61.4171L20.3394 61.5636L20.5864 61.7076L20.8344 61.8489L21.0839 61.9879L21.3346 62.1243L21.5867 62.2582L21.8398 62.3895L22.0941 62.5184L22.3498 62.6446L22.6066 62.7683L22.8644 62.8894L23.1234 63.0079L23.3833 63.1236L23.6445 63.2369L23.9065 63.3475L24.1696 63.4556L24.4336 63.561L24.6985 63.6636L24.9644 63.7637L25.231 63.8611L25.4985 63.9558L25.767 64.0478L26.0362 64.1373L26.3062 64.2239L26.5766 64.3079L26.8482 64.3892L27.1201 64.4678L27.3928 64.5436L27.6662 64.6168L27.9401 64.6873L28.2146 64.7549L28.4894 64.8199L28.7651 64.8822L29.0411 64.9416L29.3174 64.9985L29.5943 65.0525L29.8716 65.1038L30.1492 65.1524L30.4271 65.1981L30.7053 65.2412L30.9839 65.2814L31.2628 65.3189L31.5417 65.3538L31.8209 65.3858L32.1003 65.415L32.3799 65.4416L32.6596 65.4653L32.9393 65.4864L33.219 65.5046L33.4989 65.5202L33.7786 65.5329L34.0583 65.5429L34.338 65.5502L34.6177 65.5546L34.8971 65.5564L35.1765 65.5554L35.4557 65.5517L35.7346 65.5454L36.0133 65.5361L36.2919 65.5243L36.5701 65.5097L36.8479 65.4923L37.1255 65.4723L37.4028 65.4496L37.6795 65.4241L37.9558 65.3959L38.2318 65.365L38.5071 65.3316L38.7821 65.2954L39.0565 65.2564L39.3303 65.2149L39.6036 65.1707L39.8763 65.1238L40.1484 65.0743L40.4196 65.0222L40.6902 64.9674L40.9602 64.91L41.2294 64.8501L41.4977 64.7874L41.7654 64.7222L42.0321 64.6545L42.298 64.584L42.563 64.5111L42.8273 64.4356L43.0904 64.3576L43.3527 64.277L43.6139 64.1941L43.8743 64.1084L44.1336 64.0204L44.3915 63.9298L44.6489 63.8366L44.9049 63.7411L45.1597 63.6431L45.4135 63.5428L45.6659 63.44L45.9172 63.3347L46.1674 63.227L46.4162 63.117L46.6636 63.0046L46.9101 62.8899L47.155 62.7726L47.3985 62.6533L47.6409 62.5314L47.8816 62.4074L48.1211 62.2811L48.3592 62.1524L48.5956 62.0215L48.8307 61.8884L49.0641 61.7532L49.2964 61.6155L49.5266 61.4759L49.7558 61.3338L49.9829 61.1899L50.2086 61.0436L50.4328 60.8952L50.6553 60.7446L50.8758 60.5923L51.0948 60.4376L51.3122 60.2809L51.5278 60.1223L51.7417 59.9614L51.9536 59.7989L52.1641 59.634L52.3724 59.4674L52.5789 59.2989L52.7839 59.1283L52.9868 58.9558L53.1877 58.7816L53.3868 58.6053L53.5839 58.4274L53.7792 58.2475L53.9726 58.0658L54.1636 57.8825L54.3531 57.6972L54.5404 57.5101L54.7256 57.3215L54.9089 57.1311L55.0899 56.9392L55.2688 56.7457L55.4461 56.5499L55.6208 56.3532L55.7937 56.1545L55.9641 55.9545L56.1326 55.7527L56.2989 55.5496L56.4628 55.3449L56.6248 55.1386L56.7844 54.9311L56.942 54.7218L57.0971 54.5114L57.2501 54.2994L57.4011 54.086L57.5492 53.8717L57.6954 53.6556L57.8391 53.4386L57.9807 53.2199L58.1201 52.9999L58.2568 52.7791L58.3912 52.5571L58.5235 52.3332L58.6531 52.109L58.7805 51.8832L58.9057 51.6562L59.0281 51.4287L59.1484 51.1994L59.2662 50.9692L59.3813 50.7389L59.4943 50.5066L59.6049 50.2735L59.7128 50.0397L59.8183 49.805L59.9214 49.5692L60.0219 49.3329L60.1201 49.0952L60.2157 48.8569L60.3088 48.6184L60.3993 48.3782L60.4873 48.1379L60.573 47.8965L60.6562 47.6546L60.7367 47.4119L60.8144 47.1692L60.8901 46.9248L60.9628 46.6806L61.0331 46.4356L61.101 46.1903L61.1662 45.9441L61.2287 45.6978L61.2889 45.4507L61.3464 45.2032L61.4015 44.9554L61.4539 44.7071L61.5036 44.4588L61.5508 44.2095L61.5954 43.9608L61.6375 43.7111L61.6769 43.4613L61.7138 43.2114L61.7482 42.9611L61.7799 42.7111L61.8091 42.46L61.8355 42.2098L61.8596 41.9588L61.8808 41.7084L61.8997 41.4571L61.9159 41.2067L61.9295 40.9556L61.9406 40.7043L61.949 40.4537L61.955 40.2035L61.9583 39.9524L61.9591 39.7017L61.9573 39.4514L61.9529 39.2012L61.9459 38.9511L61.9364 38.7019L61.9243 38.4517L61.9097 38.2027L61.8925 37.9537L61.8729 37.7054L61.8506 37.4567L61.826 37.2092L61.7987 36.9614L61.7688 36.7145L61.7365 36.4678L61.7018 36.2218L61.6643 35.9757L61.6245 35.7308L61.5823 35.4866L61.5375 35.2423L61.4901 34.9988L61.4404 34.7563L61.3881 34.5136L61.3338 34.2726L61.2765 34.0314L61.2172 33.7918L61.155 33.5519L61.0907 33.3137L61.024 33.0759L60.9549 32.8386L60.8834 32.6027L60.8096 32.3676L60.7331 32.1327L60.6547 31.8996L60.5735 31.6666L60.4904 31.4351L60.4047 31.2041L60.3169 30.9748L60.2264 30.7457L60.1339 30.5179L60.0393 30.2916L59.9424 30.0663L59.8427 29.8413L59.7416 29.6184L59.6375 29.3957L59.5316 29.1751L59.4235 28.9553L59.313 28.7363L59.2006 28.5191L59.0859 28.3028L58.9688 28.0876L58.8503 27.8744L58.729 27.6618L58.606 27.4509L58.4805 27.241L58.3536 27.0332L58.2239 26.8259L58.0927 26.6205L57.9591 26.4162L57.8237 26.2136L57.6865 26.0127L57.5469 25.8127L57.4055 25.6145L57.2623 25.4178L57.117 25.2228L56.97 25.029L56.8209 24.8371L56.6701 24.6465L56.5174 24.4577L56.3628 24.2705L56.2063 24.0848L56.048 23.9009L55.8881 23.7186L55.7266 23.5381L55.5631 23.3592L55.3976 23.1817L55.2312 23.0067L55.062 22.8327L54.892 22.6611L54.7201 22.4908L54.5467 22.3226L54.3711 22.1558L54.1948 21.9915L54.0162 21.8285L53.8362 21.6674L53.6552 21.5085L53.4724 21.3514L53.2875 21.1957L53.1016 21.0423L52.9144 20.8908L52.7256 20.7413L52.5354 20.5936L52.3441 20.4483L52.1508 20.3041L51.9568 20.1627L51.7612 20.0231L51.5641 19.8853L51.3662 19.7498L51.1662 19.6158L50.9662 19.4847L50.764 19.355L50.561 19.2275L50.3565 19.102L50.1511 18.9787L49.9446 18.8575L49.7373 18.7387L49.5281 18.6213L49.3188 18.5067L49.1078 18.3939L48.8959 18.2834L48.6833 18.1751L48.4693 18.0688L48.2545 17.9645L48.0389 17.8627L47.8222 17.7629L47.605 17.6655L47.3867 17.57L47.1605 17.4739L46.9479 17.3861L46.7266 17.2972L46.5057 17.211L46.2829 17.1264L46.0602 17.0446L45.8365 16.9647L45.6123 16.8873L45.3872 16.8118L45.1618 16.7389L44.9355 16.6681L44.7088 16.5996L44.4818 16.5335L44.2539 16.4695L44.0252 16.4077L43.7967 16.3484L43.5678 16.2913L43.3375 16.2364L43.1079 16.184L42.8773 16.1336L42.6466 16.0857L42.4151 16.04L42.1839 15.9967L41.9521 15.9556L41.7204 15.917L41.4877 15.8804L41.2555 15.8463L41.0229 15.8145L40.7899 15.7849L40.557 15.7577L40.324 15.7328L40.0909 15.7101L39.8576 15.6898L39.6242 15.6718L39.3906 15.656L39.1576 15.6426L38.9245 15.6315L38.6906 15.6227L38.4579 15.6161L38.2248 15.6119L37.9919 15.6099L37.7586 15.6103L37.7118 15.6108L37.7854 21.8157L37.9177 21.815L38.088 21.816L38.2583 21.8186L38.4287 21.823L38.5993 21.829L38.77 21.8368L38.9406 21.8462L39.1114 21.8572L39.2821 21.87L39.4529 21.8845L39.6237 21.9007L39.7943 21.9186L39.9651 21.9382L40.1357 21.9595L40.3062 21.9824L40.4766 22.0072L40.6469 22.0335L40.817 22.0616L40.9872 22.0915L41.157 22.123L41.3266 22.1562L41.4961 22.1912L41.6654 22.2277L41.8344 22.266L42.0031 22.3061L42.1716 22.3478L42.3396 22.3912L42.5075 22.4363L42.675 22.483L42.8422 22.5316L43.0091 22.5817L43.1755 22.6335L43.3414 22.6871L43.507 22.7423L43.6722 22.7993L43.8368 22.8579L44.0011 22.9181L44.1648 22.98L44.3281 23.0436L44.4907 23.1088L44.6529 23.1757L44.8144 23.2444L44.9755 23.3145L45.1359 23.3864L45.2956 23.4598L45.4547 23.535L45.6133 23.6118L45.7711 23.6902L45.9282 23.7702L46.0847 23.8519L46.2404 23.935L46.3954 24.0199L46.5497 24.1063L46.7031 24.1942L46.8558 24.2838L47.0078 24.3751L47.1588 24.4678L47.3089 24.5621L47.4583 24.658L47.6068 24.7554L47.7544 24.8543L47.9011 24.9548L48.0469 25.0569L48.1917 25.1603L48.3355 25.2653L48.4784 25.372L48.6204 25.48L48.7612 25.5895L48.9011 25.7006L49.0399 25.8129L49.1777 25.9269L49.3144 26.0423L49.4502 26.159L49.5847 26.2772L49.7182 26.3968L49.8505 26.5179L49.9815 26.6403L50.1115 26.7642L50.2402 26.8894L50.3678 27.016L50.4943 27.1439L50.6195 27.2733L50.7435 27.4038L50.8661 27.5358L50.9875 27.6691L51.1076 27.8037L51.2265 27.9394L51.344 28.0765L51.4602 28.2149L51.5752 28.3545L51.6886 28.4954L51.8008 28.6374L51.9115 28.7808L52.0209 28.9252L52.1289 29.071L52.2354 29.2178L52.3406 29.3658L52.4441 29.515L52.5464 29.6653L52.6471 29.8168L52.7463 29.9692L52.844 30.123L52.9402 30.2777L53.035 30.4334L53.1282 30.5902L53.2198 30.7481L53.3099 30.9069L53.3984 31.0668L53.4852 31.2277L53.5706 31.3895L53.6544 31.5524L53.7364 31.7162L53.8169 31.8809L53.8958 32.0465L53.9729 32.2129L54.0484 32.3804L54.1222 32.5486L54.1945 32.7178L54.2649 32.8877L54.3338 33.0585L54.4008 33.2301L54.4661 33.4024L54.5297 33.5756L54.5915 33.7494L54.6518 33.9241L54.7102 34.0994L54.7667 34.2756L54.8216 34.4522L54.8747 34.6296L54.926 34.8077L54.9755 34.9864L55.023 35.1658L55.069 35.3457L55.113 35.5262L55.1552 35.7072L55.1956 35.8889L55.2341 36.071L55.2708 36.2537L55.3055 36.4368L55.3385 36.6205L55.3696 36.8046L55.3988 36.989L55.4261 37.1741L55.4516 37.3593L55.4752 37.545L55.4969 37.7313L55.5165 37.9178L55.5344 38.1045L55.5505 38.2916L55.5644 38.479L55.5766 38.6666L55.5867 38.8545L55.595 39.0426L55.6013 39.2311L55.6057 39.4196L55.6081 39.6084L55.6086 39.7973L55.6071 39.9863L55.6037 40.1754L55.5984 40.3647L55.5911 40.5541L55.5818 40.7434L55.5706 40.9329L55.5575 41.1225L55.5424 41.3119L55.5252 41.5014L55.5062 41.6908L55.4851 41.8801L55.4622 42.0696L55.4372 42.2587L55.4102 42.4478L55.3813 42.6368L55.3505 42.8256L55.3177 43.0142L55.2828 43.2027L55.2461 43.391L55.2073 43.579L55.1665 43.7668L55.124 43.9543L55.0794 44.1415L55.0328 44.3283L54.9842 44.515L54.9338 44.7012L54.8813 44.8871L54.8269 45.0725L54.7706 45.2575L54.7123 45.4423L54.6519 45.6265L54.5898 45.8101L54.5256 45.9934L54.4597 46.1762L54.3917 46.3584L54.3217 46.54L54.25 46.7212L54.1763 46.9017L54.1006 47.0817L54.023 47.261L53.9437 47.4397L53.8623 47.6178L53.779 47.795L53.694 47.9717L53.607 48.1476L53.518 48.3228L53.4273 48.4973L53.3347 48.6709L53.2402 48.8438L53.144 49.0158L53.0459 49.1871L52.9459 49.3574L52.8441 49.527L52.7406 49.6955L52.6352 49.8634L52.5279 50.0301L52.419 50.196L52.3081 50.3608L52.1956 50.5248L52.0813 50.6877L51.9653 50.8496L51.8474 51.0105L51.7279 51.1704L51.6066 51.3291L51.4836 51.4868L51.3589 51.6433L51.2325 51.7988L51.1044 51.953L50.9747 52.1062L50.8432 52.2582L50.7101 52.409L50.5753 52.5585L50.439 52.7069L50.301 52.854L50.1615 52.9999L50.0203 53.1444L49.8776 53.2877L49.7331 53.4296L49.5873 53.5704L49.4398 53.7097L49.2909 53.8475L49.1404 53.9842L48.9883 54.1192L48.8349 54.253L48.6799 54.3855L48.5235 54.5163L48.3656 54.6459L48.2063 54.7738L48.0454 54.9002L47.8833 55.0252L47.7198 55.1488L47.5549 55.2707L47.3885 55.3912L47.2209 55.5101L47.0519 55.6274L46.8816 55.7431L46.7099 55.8572L46.537 55.9697L46.3628 56.0806L46.1875 56.1898L46.0107 56.2973L45.8329 56.4033L45.6537 56.5075L45.4735 56.61L45.292 56.7108L45.1094 56.81L44.9256 56.9074L44.7407 57.003L44.5547 57.0968L44.3677 57.1889L44.1795 57.2793L43.9902 57.3678L43.8 57.4545L43.6088 57.5394L43.4165 57.6225L43.2232 57.7037L43.029 57.783L42.8339 57.8606L42.6378 57.9363L42.4409 58.0101L42.243 58.0821L42.0443 58.152L41.8446 58.2201L41.6443 58.2863L41.443 58.3504L41.2411 58.4127L41.0383 58.4731L40.8347 58.5314L40.6305 58.5879L40.4255 58.6423L40.2198 58.6947L40.0135 58.7452L39.8065 58.7937L39.5987 58.8402L39.3906 58.8847L39.1816 58.927L38.9722 58.9675L38.7623 59.0059L38.5518 59.0423L38.3407 59.0765L38.1294 59.1087L37.9174 59.1389L37.7049 59.167L37.492 59.1931L37.2789 59.217L37.0653 59.2389L36.8513 59.2587L36.637 59.2764L36.4224 59.292L36.2075 59.3054L35.9922 59.3168L35.7768 59.3261L35.561 59.3332L35.3451 59.3382L35.129 59.3411L34.9127 59.342L34.6963 59.3407L34.4799 59.3371L34.2631 59.3316L34.0464 59.3238L33.8297 59.3139L33.6128 59.3019L33.3961 59.2877L33.1792 59.2715L32.9625 59.253L32.7458 59.2324L32.529 59.2097L32.3125 59.1848L32.0961 59.1579L31.8797 59.1287L31.6636 59.0973L31.4477 59.0639L31.232 59.0283L31.0164 58.9905L30.8011 58.9507L30.5862 58.9087L30.3716 58.8644L30.1571 58.8181L29.9432 58.7697L29.7295 58.7191L29.5162 58.6663L29.3034 58.6114L29.0909 58.5545L28.8789 58.4954L28.6675 58.4342L28.4565 58.3709L28.2459 58.3054L28.036 58.2377L27.8268 58.1681L27.6178 58.0963L27.4097 58.0225L27.2023 57.9465L26.9953 57.8684L26.7891 57.7882L26.5836 57.7061L26.3787 57.6217L26.1747 57.5353L25.9714 57.447L25.769 57.3564L25.5672 57.2639L25.3664 57.1694L25.1664 57.0728L24.9672 56.9741L24.7688 56.8735L24.5716 56.7709L24.3752 56.6661L24.1797 56.5595L23.9852 56.4509L23.7917 56.3402L23.5992 56.2277L23.4078 56.1131L23.2174 55.9965L23.0281 55.8782L22.8399 55.7577L22.6529 55.6355L22.467 55.5111L22.2823 55.385L22.0987 55.2571L21.9164 55.1272L21.7352 54.9954L21.5553 54.8618L21.3766 54.7262L21.1993 54.5889L21.0234 54.4498L20.8487 54.3087L20.6753 54.166L20.5032 54.0213L20.3326 53.8751L20.1635 53.7269L19.9956 53.577L19.8292 53.4254L19.6644 53.2722L19.501 53.1171L19.339 52.9603L19.1786 52.8019L19.0198 52.6418L18.8625 52.48L18.7066 52.3166L18.5524 52.1515L18.4 51.985L18.249 51.8166L18.0997 51.6468L17.9521 51.4754L17.806 51.3025L17.6618 51.128L17.5191 50.9519L17.3784 50.7744L17.2393 50.5954L17.1019 50.4149L16.9664 50.2329L16.8325 50.0496L16.7005 49.8647L16.5704 49.6785L16.442 49.4908L16.3156 49.3019L16.191 49.1116L16.0683 48.9199L15.9475 48.7269L15.8286 48.5326L15.7116 48.3369L15.5965 48.1402L15.4835 47.942L15.3723 47.7428L15.2632 47.5421L15.1561 47.3405L15.051 47.1376L14.9479 46.9335L14.8468 46.7283L14.7478 46.522L14.6508 46.3147L14.556 46.1061L14.4632 45.8967L14.3725 45.6861L14.2839 45.4744L14.1975 45.2619L14.1132 45.0485L14.031 44.8338L13.951 44.6184L13.8731 44.4022L13.7975 44.1848L13.724 43.9668L13.6527 43.7478L13.5836 43.528L13.5168 43.3075L13.4521 43.0861L13.3898 42.864L13.3296 42.6412L13.2717 42.4174L13.2161 42.1933L13.1628 41.9683L13.1117 41.7426L13.0629 41.5163L13.0165 41.2895L12.9723 41.0621L12.9304 40.834L12.8909 40.6054L12.8537 40.3764L12.8188 40.1468L12.7862 39.9168L12.756 39.6863L12.7282 39.4553L12.7027 39.2239L12.6796 38.9923L12.6588 38.7601L12.6404 38.5277L12.6244 38.295L12.6108 38.0619L12.5996 37.8287L12.5907 37.5952L12.5843 37.3614L12.5802 37.1275L12.5785 36.8933L12.5793 36.659L12.5825 36.4246L12.588 36.1902L12.596 35.9556L12.6064 35.7209L12.6192 35.4863L12.6345 35.2515L12.6521 35.017L12.6722 34.7822L12.6947 34.5478L12.7196 34.3132L12.747 34.079L12.7767 33.8447L12.8089 33.6106L12.8435 33.3767L12.8806 33.1431L12.92 32.9097L12.9619 32.6765L13.0062 32.4436L13.0529 32.211L13.1021 31.9788L13.1536 31.7468L13.2076 31.5153L13.264 31.2842L13.3227 31.0535L13.3839 30.8233L13.4475 30.5934L13.5134 30.3642L13.5818 30.1355L13.6526 29.9072L13.7257 29.6795L13.8012 29.4525L13.8791 29.2261L13.9594 29.0002L14.042 28.7751L14.127 28.5506L14.2144 28.3269L14.304 28.1038L14.3961 27.8816L14.4904 27.6601L14.5871 27.4394L14.6862 27.2196L14.7875 27.0006L14.8911 26.7824L14.997 26.5652L15.1053 26.3489L15.2158 26.1335L15.3285 25.9192L15.4436 25.7058L15.5609 25.4934L15.6804 25.2821L15.8022 25.0717L15.9262 24.8626L16.0524 24.6545L16.1809 24.4475L16.3115 24.2416L16.4443 24.0369L16.5794 23.8335L16.7164 23.6313L16.8558 23.4303L16.9972 23.2304L17.1407 23.0319L17.2865 22.8348L17.4342 22.6389L17.5842 22.4444L17.7362 22.2512L17.8902 22.0595L18.0463 21.8692L18.2044 21.6803L18.3646 21.4928L18.5268 21.3067L18.6909 21.1223L18.8571 20.9394L19.0252 20.7579L19.1953 20.578L19.3674 20.3996L19.5412 20.223L19.717 20.0478L19.8948 19.8743L20.0745 19.7025L20.256 19.5322L20.4393 19.3639L20.6245 19.197L20.8115 19.0321L21.0002 18.8687L21.1907 18.7072L21.3831 18.5475L21.5771 18.3895L21.7729 18.2334L21.9704 18.0791L22.1696 17.9267L22.3704 17.7762L22.573 17.6275L22.7771 17.4808L22.9828 17.336L23.1902 17.1931L23.3992 17.0522L23.6096 16.9134L23.8217 16.7764L24.0352 16.6415L24.2503 16.5086L24.4669 16.3777L24.6849 16.2489L24.9042 16.1222L25.1252 15.9976L25.3474 15.875L25.5709 15.7546L25.7959 15.6363L26.0222 15.5202L26.2498 15.4062L26.4787 15.2944L26.7089 15.1848L26.9404 15.0774L27.173 14.9722L27.407 14.8692L27.642 14.7685L27.8782 14.6701L28.1156 14.5739L28.3539 14.48L28.5935 14.3883L28.8341 14.299L29.0758 14.212L29.3185 14.1273L29.5622 14.045L29.8068 13.965L30.0523 13.8874L30.2989 13.8121L30.5463 13.7393L30.7946 13.6688L31.0437 13.6007L31.2937 13.535L31.5445 13.4718L31.7961 13.411L32.0484 13.3526L32.3015 13.2967L32.5552 13.2432L32.8096 13.1922L33.0648 13.1437L33.3204 13.0976L33.5768 13.0541L33.8338 13.013L34.0912 12.9744L34.3492 12.9384L34.6076 12.9048L34.704 12.8932ZM34.8131 22.0963L34.7388 15.8233L34.5269 15.8529L34.2992 15.887L34.0713 15.9234L33.8448 15.9619L33.618 16.0028L33.3924 16.0457L33.1672 16.0909L32.9428 16.1381L32.719 16.1876L32.4956 16.2393L32.2729 16.2931L32.0511 16.3491L31.8295 16.4072L31.6167 16.4653L31.3899 16.5298L31.1709 16.5942L30.9529 16.6608L30.736 16.7293L30.5196 16.8001L30.304 16.873L30.0894 16.9478L29.876 17.0246L29.6633 17.1037L29.4516 17.1845L29.2407 17.2676L29.0315 17.3525L28.8222 17.4397L28.6146 17.5287L28.4079 17.6196L28.2028 17.7124L27.998 17.8074L27.7945 17.9043L27.5927 18.0028L27.3912 18.1037L27.1919 18.2061L26.9928 18.3108L26.7958 18.4168L26.599 18.5254L26.4042 18.6351L26.2107 18.747L26.0182 18.8608L25.8271 18.9762L25.637 19.0938L25.4489 19.2126L25.2615 19.3335L25.076 19.4561L24.8917 19.5803L24.7088 19.7064L24.5269 19.8343L24.3472 19.9634L24.1685 20.0947L23.9912 20.2275L23.8156 20.3619L23.6415 20.4978L23.4687 20.6356L23.2977 20.7748L23.1282 20.9155L22.9601 21.0582L22.794 21.2019L22.629 21.3475L22.4657 21.4946L22.3042 21.6429L22.1445 21.7928L21.9859 21.9444L21.8295 22.097L21.6747 22.2512L21.5213 22.4071L21.3698 22.564L21.22 22.7226L21.0719 22.8824L20.9256 23.0434L20.781 23.2059L20.638 23.3699L20.4974 23.5347L20.3581 23.7011L20.2206 23.8687L20.0851 24.0374L19.9515 24.2072L19.8193 24.3787L19.6893 24.5509L19.561 24.7244L19.4347 24.8991L19.3102 25.0749L19.1878 25.2515L19.0672 25.4295L18.9484 25.6085L18.8315 25.7886L18.7167 25.9694L18.6039 26.1514L18.4928 26.3347L18.3838 26.5184L18.2768 26.7033L18.1716 26.8892L18.0687 27.0756L17.9675 27.2632L17.8682 27.4519L17.7713 27.6408L17.6761 27.8311L17.5831 28.022L17.492 28.2134L17.4031 28.4059L17.3161 28.5989L17.2312 28.7928L17.1482 28.9873L17.0675 29.1824L16.9888 29.3782L16.912 29.5748L16.8373 29.7718L16.7649 29.9694L16.6943 30.1678L16.6261 30.3663L16.5597 30.5657L16.4956 30.7655L16.4334 30.9658L16.3735 31.1665L16.3156 31.3676L16.2599 31.5691L16.2062 31.7712L16.1546 31.9735L16.1052 32.1762L16.0579 32.3793L16.0127 32.5825L15.9696 32.7863L15.9286 32.9902L15.8898 33.1942L15.8531 33.3988L15.8185 33.6033L15.786 33.8082L15.7557 34.0129L15.7275 34.2181L15.7014 34.4233L15.6775 34.6287L15.6556 34.834L15.6359 35.0395L15.6183 35.245L15.6029 35.4504L15.5895 35.6561L15.5783 35.8616L15.5692 36.067L15.5622 36.2723L15.5573 36.4775L15.5546 36.6827L15.5539 36.8879L15.5553 37.0928L15.5589 37.2975L15.5646 37.502L15.5723 37.7062L15.5821 37.9105L15.594 38.1144L15.608 38.3178L15.6241 38.5212L15.6423 38.7241L15.6625 38.9267L15.6848 39.129L15.7091 39.3309L15.7355 39.5325L15.764 39.7335L15.7945 39.9343L15.827 40.1343L15.8615 40.3342L15.8981 40.5335L15.9367 40.7321L15.9773 40.9304L16.0199 41.128L16.0646 41.3252L16.1111 41.5215L16.1597 41.7174L16.2103 41.9127L16.2628 42.1074L16.3172 42.3012L16.3737 42.4946L16.432 42.6871L16.4924 42.879L16.5545 43.0702L16.6187 43.2605L16.6847 43.4499L16.7526 43.6387L16.8224 43.8267L16.8941 44.0139L16.9677 44.2001L17.043 44.3855L17.1203 44.57L17.1993 44.7537L17.2803 44.9363L17.363 45.1181L17.4476 45.2988L17.5339 45.4787L17.6219 45.6576L17.7118 45.8353L17.8034 46.0123L17.8967 46.1881L17.9919 46.3627L18.0886 46.5364L18.1872 46.709L18.2873 46.8804L18.3893 47.0507L18.4928 47.22L18.598 47.3881L18.7049 47.555L18.8135 47.7209L18.9234 47.8851L19.0352 48.0486L19.1484 48.2106L19.2633 48.3715L19.3797 48.5311L19.4977 48.6894L19.6172 48.8463L19.7383 49.0022L19.8607 49.1566L19.9847 49.3097L20.1102 49.4614L20.2372 49.6119L20.3656 49.7608L20.4954 49.9087L20.6266 50.0548L20.7592 50.1998L20.8932 50.3431L21.0286 50.4851L21.1653 50.6257L21.3034 50.7649L21.4427 50.9025L21.5834 51.0387L21.7255 51.1735L21.8685 51.3066L22.0131 51.4384L22.1588 51.5684L22.3057 51.697L22.4539 51.8241L22.6032 51.9496L22.7537 52.0736L22.9053 52.1959L23.0581 52.3166L23.212 52.4358L23.367 52.5535L23.5232 52.6694L23.6802 52.7837L23.8383 52.8963L23.9976 53.0074L24.1578 53.1168L24.3191 53.2246L24.4813 53.3306L24.6445 53.435L24.8086 53.5377L24.9735 53.6387L25.1394 53.7381L25.3063 53.8356L25.4739 53.9314L25.6425 54.0256L25.8117 54.1179L25.982 54.2087L26.1529 54.2976L26.3245 54.3847L26.4971 54.4702L26.6704 54.5538L26.8443 54.6358L27.0188 54.7158L27.1943 54.7942L27.3701 54.8707L27.5467 54.9454L27.724 55.0184L27.9019 55.0895L28.0802 55.1588L28.2592 55.2264L28.4388 55.2921L28.6188 55.3561L28.7993 55.4181L28.9805 55.4785L29.162 55.5368L29.344 55.5934L29.5265 55.6481L29.7092 55.7011L29.8924 55.7522L30.076 55.8014L30.2599 55.8489L30.4441 55.8944L30.6287 55.9381L30.8136 55.9799L30.9989 56.02L31.1842 56.0582L31.3698 56.0944L31.5558 56.1288L31.7417 56.1614L31.9281 56.1923L32.1144 56.221L32.301 56.2481L32.4877 56.2733L32.6743 56.2967L32.8612 56.3181L33.048 56.3377L33.2351 56.3554L33.4221 56.3713L33.6091 56.3853L33.7961 56.3976L33.9829 56.4079L34.1698 56.4165L34.3568 56.4231L34.5435 56.428L34.73 56.4309L34.9165 56.4321L35.1029 56.4314L35.2891 56.4288L35.4752 56.4246L35.6609 56.4184L35.8466 56.4105L36.0318 56.4006L36.2169 56.389L36.4016 56.3756L36.5862 56.3603L36.7703 56.3433L36.9542 56.3244L37.1378 56.3038L37.3209 56.2814L37.5037 56.2572L37.686 56.2314L37.868 56.2037L38.0495 56.1741L38.2303 56.1429L38.411 56.1098L38.5911 56.0751L38.7706 56.0387L38.9498 56.0004L39.1281 55.9605L39.306 55.9189L39.4833 55.8754L39.6601 55.8304L39.8362 55.7837L40.0117 55.7351L40.1865 55.685L40.3607 55.6332L40.5341 55.5798L40.7068 55.5246L40.879 55.4678L41.0503 55.4093L41.2209 55.3493L41.3907 55.2876L41.5597 55.2243L41.7279 55.1593L41.8953 55.0928L42.062 55.0246L42.2277 54.9549L42.3925 54.8837L42.5566 54.811L42.7196 54.7366L42.882 54.6606L43.0433 54.5832L43.2034 54.5045L43.3631 54.4238L43.5214 54.342L43.679 54.2584L43.8352 54.1736L43.9907 54.0873L44.1453 53.9994L44.2985 53.9101L44.451 53.8194L44.6023 53.7274L44.7523 53.6339L44.9016 53.5389L45.0493 53.4428L45.1963 53.345L45.3422 53.2459L45.4867 53.1455L45.6299 53.0441L45.7724 52.9408L45.9133 52.8368L46.0532 52.7311L46.192 52.6241L46.329 52.5162L46.4656 52.4066L46.6006 52.2959L46.7339 52.1842L46.8667 52.0707L46.9977 51.9566L47.1274 51.8413L47.2563 51.7243L47.3833 51.6067L47.5092 51.4877L47.6339 51.3676L47.757 51.2465L47.8789 51.1241L47.9995 51.0007L48.1187 50.8762L48.2362 50.7507L48.3526 50.6241L48.4677 50.4965L48.581 50.3681L48.6933 50.2382L48.8039 50.1077L48.913 49.9762L49.0209 49.8434L49.1271 49.7103L49.232 49.5757L49.3354 49.4405L49.4373 49.3041L49.5377 49.1671L49.6364 49.0295L49.7339 48.8903L49.8297 48.7509L49.924 48.6105L50.017 48.4691L50.1079 48.3274L50.1979 48.1845L50.286 48.0408L50.3727 47.8967L50.4576 47.7517L50.5414 47.6058L50.623 47.4598L50.7036 47.3124L50.7823 47.1649L50.8592 47.0166L50.9351 46.8673L51.0088 46.7183L51.0813 46.5676L51.1518 46.4174L51.2213 46.2657L51.2885 46.1142L51.3545 45.9614L51.4188 45.8088L51.4813 45.6556L51.5424 45.5017L51.6018 45.3473L51.6592 45.1929L51.7156 45.0376L51.7698 44.8821L51.8226 44.7262L51.8737 44.5699L51.9232 44.4131L51.9711 44.2561L52.0172 44.0989L52.0617 43.9412L52.1044 43.7834L52.1456 43.6251L52.1851 43.4666L52.2229 43.3082L52.2591 43.1489L52.2935 42.9899L52.3265 42.8306L52.3575 42.6713L52.387 42.5118L52.4148 42.3515L52.4409 42.192L52.4654 42.0319L52.4881 41.8717L52.5092 41.7118L52.5287 41.5515L52.5466 41.3908L52.5627 41.2313L52.5773 41.0704L52.5901 40.9101L52.6011 40.7502L52.6107 40.5899L52.6185 40.4298L52.6247 40.2699L52.6292 40.1095L52.632 39.9501L52.6333 39.79L52.6328 39.6304L52.6308 39.4709L52.6271 39.3119L52.6217 39.1527L52.6148 38.9938L52.6062 38.8355L52.5959 38.6767L52.5841 38.5184L52.5708 38.361L52.5557 38.203L52.5389 38.046L52.5206 37.8887L52.5008 37.7322L52.4794 37.5759L52.4563 37.4197L52.4316 37.2642L52.4055 37.1092L52.3777 36.9545L52.3484 36.8002L52.3174 36.6459L52.2849 36.4926L52.251 36.3399L52.2154 36.1873L52.1782 36.035L52.1398 35.884L52.0995 35.7325L52.0579 35.5824L52.0148 35.4324L51.9701 35.2834L51.924 35.1345L51.8763 34.9863L51.8273 34.839L51.7768 34.6923L51.7245 34.5457L51.6713 34.4004L51.6162 34.2554L51.5599 34.1114L51.5021 33.9678L51.4428 33.8248L51.3823 33.683L51.3201 33.5415L51.2568 33.4011L51.192 33.2614L51.1258 33.1222L51.0581 32.9837L50.9894 32.8465L50.919 32.7097L50.8476 32.5741L50.7747 32.4394L50.7003 32.3048L50.625 32.1718L50.548 32.0394L50.47 31.908L50.3904 31.7772L50.3101 31.6478L50.2279 31.5187L50.145 31.3912L50.0605 31.2644L49.975 31.1386L49.888 31.0134L49.8 30.8895L49.711 30.7668L49.6204 30.6446L49.529 30.5238L49.4362 30.4038L49.3427 30.2851L49.2476 30.1671L49.1515 30.0504L49.0542 29.9347L48.956 29.8199L48.8568 29.7066L48.7562 29.5939L48.6549 29.4827L48.5523 29.3723L48.449 29.2636L48.3441 29.1553L48.2388 29.0486L48.132 28.9426L48.0245 28.8382L47.9162 28.735L47.8068 28.6327L47.6963 28.5316L47.5849 28.4319L47.4727 28.3334L47.3592 28.2356L47.2458 28.1399L47.1307 28.0446L47.0149 27.9509L46.8984 27.8585L46.7808 27.767L46.6627 27.677L46.544 27.5886L46.4239 27.5009L46.3029 27.4144L46.182 27.3298L46.0594 27.2459L45.937 27.1639L45.8135 27.0827L45.6891 27.0028L45.5639 26.9243L45.4386 26.8473L45.312 26.7713L45.1852 26.697L45.0573 26.6236L44.9295 26.552L44.8006 26.4816L44.6711 26.4123L44.5411 26.3444L44.4107 26.2782L44.2795 26.2129L44.1477 26.1491L44.0157 26.0868L43.8834 26.0259L43.7497 25.966L43.6165 25.9079L43.4825 25.8511L43.3477 25.7954L43.2128 25.7413L43.0778 25.6887L42.942 25.6374L42.8055 25.5873L42.6693 25.5389L42.5323 25.4916L42.395 25.4459L42.2578 25.4015L42.12 25.3587L41.9821 25.3171L41.8432 25.2769L41.7047 25.2382L41.5659 25.2009L41.4268 25.165L41.2875 25.1304L41.1476 25.0973L41.0079 25.0657L40.8683 25.0355L40.7281 25.0066L40.5875 24.979L40.4477 24.9532L40.307 24.9285L40.1665 24.9053L40.0255 24.8834L39.8852 24.8631L39.7438 24.8439L39.6034 24.8265L39.4625 24.8103L39.3216 24.7955L39.1808 24.7822L39.0398 24.7702L38.8993 24.7597L38.7581 24.7506L38.6175 24.7428L38.4773 24.7364L38.336 24.7314L38.1959 24.7278L38.0557 24.7257L37.9156 24.7249L37.8198 24.7252L37.8924 30.8541L37.9357 30.8543L38.0162 30.8554L38.0969 30.8574L38.1777 30.86L38.2586 30.8637L38.3396 30.8681L38.4206 30.8733L38.5018 30.8795L38.5829 30.8864L38.6643 30.8942L38.7456 30.9028L38.8269 30.9123L38.9084 30.9226L38.9898 30.9338L39.0713 30.9459L39.1527 30.9588L39.2342 30.9726L39.3156 30.9873L39.3971 31.0028L39.4784 31.0191L39.5597 31.0364L39.6411 31.0545L39.7224 31.0735L39.8034 31.0933L39.8846 31.1139L39.9656 31.1355L40.0464 31.1579L40.1273 31.1811L40.2079 31.2053L40.2885 31.2303L40.3688 31.2563L40.4492 31.283L40.5292 31.3106L40.6092 31.339L40.6889 31.3684L40.7685 31.3986L40.8479 31.4296L40.9271 31.4616L41.006 31.4944L41.0847 31.528L41.1633 31.5626L41.2415 31.598L41.3196 31.6342L41.3974 31.6713L41.4748 31.7092L41.5521 31.748L41.6289 31.7877L41.7055 31.8282L41.7818 31.8696L41.8578 31.9118L41.9334 31.9548L42.0088 31.9986L42.0836 32.0433L42.1583 32.0889L42.2325 32.1353L42.3063 32.1825L42.3797 32.2304L42.4528 32.2793L42.5255 32.3291L42.5977 32.3796L42.6695 32.4309L42.7409 32.483L42.8118 32.536L42.8823 32.5897L42.9523 32.6442L43.0219 32.6996L43.0909 32.7558L43.1594 32.8126L43.2276 32.8704L43.2951 32.9288L43.3622 32.9881L43.4287 33.0481L43.4946 33.109L43.5601 33.1705L43.6248 33.2329L43.6893 33.296L43.7529 33.3598L43.8161 33.4244L43.8787 33.4897L43.9406 33.5558L44.0019 33.6226L44.0627 33.6902L44.1229 33.7584L44.1823 33.8274L44.2411 33.897L44.2993 33.9673L44.3568 34.0384L44.4136 34.1101L44.4698 34.1826L44.5253 34.2558L44.5802 34.3295L44.6342 34.404L44.6875 34.479L44.7402 34.5548L44.7922 34.6313L44.8433 34.7084L44.8938 34.786L44.9437 34.8644L44.9925 34.9433L45.0407 35.0228L45.0881 35.103L45.1347 35.1837L45.1807 35.265L45.2256 35.347L45.27 35.4295L45.3135 35.5126L45.356 35.5962L45.3979 35.6803L45.4388 35.765L45.4789 35.8504L45.5182 35.9361L45.5566 36.0225L45.5943 36.1093L45.631 36.1967L45.6669 36.2845L45.7018 36.3728L45.7359 36.4616L45.7691 36.5509L45.8014 36.6407L45.8328 36.7309L45.8633 36.8215L45.8928 36.9126L45.9214 37.0041L45.9492 37.096L45.976 37.1884L46.0018 37.2812L46.0268 37.3743L46.0508 37.4678L46.0737 37.5618L46.0958 37.6561L46.1169 37.7506L46.137 37.8457L46.1562 37.941L46.1742 38.0364L46.1914 38.1325L46.2076 38.2288L46.2229 38.3252L46.237 38.4222L46.2502 38.5192L46.2623 38.6166L46.2735 38.7144L46.2838 38.8123L46.2928 38.9103L46.301 39.0087L46.3081 39.1074L46.3141 39.2061L46.3191 39.3051L46.323 39.4043L46.3261 39.5037L46.3279 39.6032L46.3289 39.7028L46.3286 39.8025L46.3274 39.9025L46.3251 40.0027L46.3217 40.1028L46.3174 40.2032L46.3118 40.3035L46.3053 40.404L46.2977 40.5045L46.289 40.6051L46.2792 40.7058L46.2685 40.8064L46.2565 40.9071L46.2435 41.0079L46.2295 41.1087L46.2144 41.2093L46.1982 41.31L46.1808 41.4106L46.1625 41.5113L46.143 41.6119L46.1226 41.7124L46.1008 41.8129L46.0781 41.9132L46.0544 42.0136L46.0294 42.1137L46.0034 42.2139L45.9764 42.3137L45.9482 42.4136L45.919 42.5131L45.8886 42.6126L45.8573 42.7119L45.8248 42.811L45.7912 42.91L45.7566 43.0087L45.7208 43.1071L45.6839 43.2054L45.6461 43.3033L45.6071 43.4012L45.567 43.4986L45.526 43.5959L45.4838 43.6928L45.4404 43.7895L45.3961 43.8858L45.3506 43.9817L45.304 44.0775L45.2566 44.1728L45.2079 44.2678L45.1583 44.3624L45.1075 44.4566L45.0557 44.5504L45.0029 44.6439L44.949 44.7369L44.894 44.8296L44.8381 44.9217L44.781 45.0136L44.723 45.1048L44.6639 45.1955L44.6037 45.286L44.5427 45.3757L44.4805 45.4652L44.4174 45.554L44.3531 45.6423L44.288 45.7301L44.2217 45.8173L44.1545 45.904L44.0864 45.9902L44.0172 46.0757L43.9471 46.1606L43.876 46.245L43.8039 46.3288L43.7307 46.4119L43.6566 46.4944L43.5816 46.5764L43.5057 46.6575L43.4289 46.7381L43.351 46.8181L43.2722 46.8973L43.1925 46.9757L43.112 47.0536L43.0303 47.1308L42.9479 47.2071L42.8646 47.2827L42.7803 47.3577L42.6953 47.4319L42.6092 47.5053L42.5224 47.5778L42.4346 47.6498L42.3459 47.7209L42.2565 47.791L42.1662 47.8605L42.0751 47.9291L41.9831 47.997L41.8904 48.0639L41.7967 48.13L41.7024 48.1954L41.6071 48.2597L41.5112 48.3233L41.4144 48.3858L41.3169 48.4476L41.2185 48.5085L41.1195 48.5684L41.0196 48.6274L40.9191 48.6855L40.8178 48.7426L40.7157 48.7988L40.6131 48.8541L40.5097 48.9084L40.4057 48.9618L40.3008 49.014L40.1954 49.0655L40.0893 49.1158L39.9825 49.1652L39.8752 49.2136L39.767 49.2608L39.6584 49.3072L39.5492 49.3525L39.4393 49.3967L39.3287 49.4399L39.2177 49.4821L39.106 49.5231L38.9938 49.5632L38.8812 49.6022L38.7678 49.64L38.654 49.6769L38.5398 49.7124L38.425 49.747L38.3096 49.7806L38.1938 49.8129L38.0776 49.8442L37.9609 49.8743L37.8437 49.9033L37.726 49.9311L37.6079 49.9579L37.4894 49.9834L37.3706 50.0079L37.2513 50.0311L37.1316 50.0532L37.0117 50.0741L36.8912 50.0939L36.7706 50.1124L36.6495 50.1298L36.5282 50.146L36.4065 50.1611L36.2846 50.1749L36.1623 50.1874L36.0398 50.1989L35.917 50.209L35.794 50.2181L35.6706 50.2257L35.5472 50.2324L35.4235 50.2377L35.2997 50.2418L35.1755 50.2446L35.0513 50.2462L34.9269 50.2467L34.8024 50.2459L34.6777 50.2438L34.5529 50.2403L34.4281 50.2358L34.3031 50.2299L34.1779 50.2228L34.0527 50.2145L33.9276 50.2049L33.8024 50.1941L33.6771 50.1819L33.5519 50.1686L33.4266 50.1538L33.3014 50.1379L33.1761 50.1207L33.051 50.1024L32.9258 50.0826L32.8008 50.0616L32.6758 50.0394L32.551 50.0158L32.4261 49.9912L32.3015 49.965L32.1769 49.9377L32.0526 49.909L31.9284 49.8791L31.8042 49.8481L31.6803 49.8157L31.5568 49.7819L31.4333 49.747L31.3102 49.7108L31.1872 49.6733L31.0644 49.6345L30.942 49.5946L30.8198 49.5533L30.698 49.5108L30.5765 49.467L30.4552 49.4218L30.3344 49.3756L30.2138 49.328L30.0937 49.2791L29.9739 49.2291L29.8545 49.1778L29.7355 49.1252L29.6169 49.0715L29.4989 49.0165L29.381 48.9601L29.2638 48.9027L29.1471 48.8439L29.0308 48.784L28.9151 48.7228L28.7998 48.6605L28.6851 48.5968L28.5709 48.5321L28.4571 48.466L28.3441 48.3988L28.2316 48.3304L28.1198 48.2608L28.0084 48.19L27.8977 48.1181L27.7877 48.0449L27.6782 47.9705L27.5696 47.8951L27.4615 47.8184L27.354 47.7407L27.2474 47.6616L27.1414 47.5816L27.0362 47.5004L26.9316 47.4179L26.8279 47.3345L26.7248 47.2499L26.6226 47.1642L26.5211 47.0774L26.4204 46.9894L26.3206 46.9004L26.2216 46.8103L26.1234 46.7191L26.026 46.6269L25.9295 46.5335L25.8338 46.4392L25.7391 46.3438L25.6453 46.2473L25.5523 46.1498L25.4602 46.0514L25.3691 45.9517L25.279 45.8512L25.1898 45.7498L25.1016 45.6472L25.0143 45.5438L24.9279 45.4392L24.8427 45.3337L24.7584 45.2274L24.6752 45.12L24.5928 45.0118L24.5117 44.9025L24.4316 44.7925L24.3526 44.6814L24.2745 44.5694L24.1976 44.4566L24.1217 44.3429L24.0471 44.2283L23.9735 44.1129L23.901 43.9967L23.8297 43.8796L23.7594 43.7616L23.6904 43.6429L23.6226 43.5233L23.5558 43.403L23.4902 43.2819L23.426 43.16L23.3628 43.0373L23.3008 42.9139L23.2401 42.7899L23.1807 42.6649L23.1224 42.5394L23.0654 42.4131L23.0097 42.2861L22.9552 42.1584L22.9019 42.0301L22.85 41.9011L22.7993 41.7715L22.75 41.6412L22.7021 41.5103L22.6553 41.3788L22.6099 41.2468L22.5657 41.1142L22.523 40.9809L22.4816 40.8472L22.4415 40.7129L22.4028 40.578L22.3654 40.4426L22.3295 40.3067L22.2948 40.1704L22.2617 40.0335L22.2299 39.8963L22.1993 39.7585L22.1703 39.6204L22.1427 39.4817L22.1164 39.3428L22.0915 39.2033L22.0682 39.0636L22.0463 38.9235L22.0256 38.7829L22.0065 38.6421L21.989 38.5009L21.9727 38.3595L21.9579 38.2176L21.9446 38.0756L21.9328 37.9332L21.9224 37.7907L21.9135 37.6478L21.906 37.5048L21.9 37.3616L21.8954 37.2181L21.8925 37.0744L21.8911 36.9308L21.8909 36.7868L21.8924 36.6426L21.8954 36.4985L21.8998 36.3541L21.9058 36.2097L21.9133 36.0652L21.9222 35.9207L21.9326 35.7761L21.9446 35.6314L21.9581 35.4868L21.973 35.3421L21.9896 35.1975L22.0076 35.0528L22.0271 34.9084L22.0482 34.7639L22.0708 34.6194L22.095 34.4751L22.1204 34.3308L22.1476 34.1866L22.1763 34.0426L22.2065 33.8988L22.2381 33.7551L22.2713 33.6116L22.306 33.4684L22.3422 33.3252L22.38 33.1824L22.4193 33.0399L22.4601 32.8975L22.5023 32.7553L22.5461 32.6136L22.5914 32.472L22.6381 32.3308L22.6865 32.19L22.7364 32.0494L22.7877 31.9093L22.8404 31.7696L22.8948 31.6303L22.9506 31.4913L23.0079 31.3527L23.0667 31.2147L23.1269 31.077L23.1888 30.9399L23.2519 30.8032L23.3167 30.667L23.3828 30.5314L23.4505 30.3962L23.5195 30.2616L23.5901 30.1277L23.662 29.9942L23.7355 29.8614L23.8104 29.7291L23.8867 29.5975L23.9644 29.4666L24.0437 29.3363L24.1242 29.2066L24.2063 29.0777L24.2898 28.9493L24.3745 28.8217L24.4607 28.6949L24.5484 28.5687L24.6373 28.4434L24.7278 28.3189L24.8195 28.195L24.9125 28.072L25.007 27.9499L25.1028 27.8285L25.2 27.708L25.2985 27.5882L25.3982 27.4696L25.4993 27.3515L25.6018 27.2345L25.7055 27.1184L25.8105 27.0032L25.9169 26.889L26.0245 26.7757L26.1334 26.6634L26.2435 26.552L26.3549 26.4416L26.4675 26.3322L26.5813 26.2239L26.6964 26.1166L26.8127 26.0103L26.93 25.9051L27.0487 25.8009L27.1687 25.698L27.2896 25.5959L27.4118 25.495L27.5351 25.3954L27.6596 25.2967L27.7851 25.1993L27.9118 25.103L28.0396 25.0079L28.1685 24.9139L28.2985 24.8212L28.4295 24.7296L28.5617 24.6392L28.695 24.5501L28.829 24.4623L28.9643 24.3757L29.1006 24.2903L29.2378 24.2062L29.3761 24.1235L29.5153 24.042L29.6555 23.9618L29.7966 23.8829L29.9386 23.8053L30.0816 23.7291L30.2255 23.6543L30.3703 23.5808L30.5159 23.5087L30.6625 23.4379L30.8099 23.3686L30.9581 23.3006L31.1071 23.234L31.257 23.1689L31.4078 23.1051L31.5592 23.0428L31.7114 22.9821L31.8644 22.9226L32.0182 22.8647L32.1726 22.8082L32.3278 22.7533L32.4838 22.6998L32.6402 22.6478L32.7976 22.5973L32.9553 22.5483L33.114 22.5009L33.273 22.455L33.4328 22.4106L33.5932 22.3678L33.754 22.3264L33.9156 22.2866L34.0776 22.2485L34.2402 22.2119L34.4032 22.1769L34.5669 22.1434L34.7308 22.1116L34.8131 22.0963ZM36.8292 33.8825L34.9581 34.3296L34.8482 25.061L34.7601 25.0808L34.6273 25.1121L34.4946 25.1447L34.363 25.1785L34.2315 25.2136L34.1008 25.2499L33.9701 25.2877L33.8407 25.3264L33.711 25.3666L33.5829 25.4077L33.4545 25.4504L33.3269 25.4942L33.2 25.5392L33.0735 25.5853L32.9482 25.6325L32.823 25.6812L32.6985 25.7309L32.5748 25.7817L32.4513 25.834L32.3294 25.8869L32.2075 25.9415L32.0867 25.9968L31.9661 26.0537L31.8466 26.1113L31.7274 26.1702L31.6096 26.2301L31.4922 26.2912L31.3756 26.3533L31.2599 26.4165L31.1448 26.4808L31.0305 26.5462L30.9175 26.6124L30.8044 26.6801L30.6927 26.7485L30.582 26.8179L30.4719 26.8884L30.3625 26.96L30.2542 27.0326L30.1467 27.1061L30.0401 27.1804L29.9346 27.2558L29.8295 27.3322L29.7256 27.4097L29.6227 27.4879L29.5206 27.5671L29.4196 27.647L29.3196 27.728L29.2203 27.81L29.1219 27.8929L29.0248 27.9764L28.9286 28.061L28.8333 28.1462L28.739 28.2324L28.6456 28.3196L28.5534 28.4074L28.4622 28.4959L28.3717 28.5855L28.2826 28.6756L28.1945 28.7666L28.1075 28.8582L28.0211 28.9511L27.9362 29.0441L27.8523 29.1381L27.7693 29.2329L27.6877 29.328L27.6068 29.4243L27.5274 29.5207L27.4487 29.6184L27.3714 29.7163L27.295 29.8152L27.2198 29.9147L27.1458 30.0145L27.0727 30.115L27.001 30.2162L26.9302 30.3181L26.8605 30.4204L26.7922 30.5235L26.725 30.6267L26.6589 30.7306L26.5938 30.8353L26.5302 30.9402L26.4674 31.046L26.406 31.1517L26.3456 31.2584L26.2864 31.3653L26.2286 31.4726L26.1717 31.5804L26.1162 31.6887L26.0617 31.7976L26.0086 31.9064L25.9565 32.0162L25.9057 32.1259L25.8562 32.2361L25.8076 32.3467L25.7604 32.4577L25.7144 32.5688L25.6696 32.6804L25.6261 32.7923L25.5836 32.9045L25.5425 33.0166L25.5026 33.1295L25.4638 33.2425L25.4263 33.3556L25.3899 33.4689L25.3549 33.5827L25.3209 33.6965L25.2885 33.8103L25.257 33.9246L25.2266 34.039L25.1977 34.1535L25.17 34.2681L25.1433 34.3829L25.118 34.4978L25.094 34.6129L25.0711 34.7278L25.0493 34.8429L25.0289 34.9584L25.0097 35.0735L24.9917 35.1887L24.9748 35.3043L24.9592 35.4194L24.945 35.535L24.9318 35.6501L24.9198 35.7655L24.9091 35.8811L24.8995 35.9962L24.8912 36.1114L24.8841 36.2267L24.8781 36.3416L24.8734 36.4566L24.8698 36.5713L24.8675 36.6863L24.8662 36.8009L24.8664 36.9153L24.8675 37.0296L24.87 37.1439L24.8735 37.2579L24.8782 37.3717L24.8841 37.4853L24.8912 37.5986L24.8995 37.7118L24.9089 37.8248L24.9195 37.9374L24.9312 38.0501L24.944 38.1619L24.9579 38.2741L24.973 38.3855L24.9894 38.497L25.0068 38.6079L25.0253 38.7186L25.045 38.8291L25.0657 38.939L25.0877 39.0488L25.1105 39.1579L25.1347 39.267L25.1599 39.3754L25.1862 39.4837L25.2135 39.5912L25.242 39.6988L25.2714 39.8054L25.3019 39.9121L25.3336 40.0179L25.3662 40.1236L25.4 40.2287L25.4347 40.333L25.4706 40.4374L25.5075 40.541L25.5453 40.6439L25.5841 40.7467L25.624 40.8488L25.6649 40.9502L25.7068 41.0512L25.7495 41.1515L25.7935 41.2515L25.8383 41.3509L25.8841 41.4496L25.9308 41.5476L25.9784 41.645L26.0273 41.7423L26.0766 41.8384L26.1271 41.934L26.1786 42.0291L26.231 42.1235L26.2842 42.2173L26.3383 42.3105L26.3933 42.4027L26.4493 42.4946L26.506 42.5856L26.5636 42.6759L26.6222 42.7657L26.6815 42.8546L26.7417 42.9431L26.8026 43.0303L26.8644 43.1173L26.9271 43.2033L26.9904 43.2886L27.0549 43.3733L27.1198 43.4571L27.1855 43.54L27.2521 43.6223L27.3195 43.704L27.3873 43.7845L27.4563 43.8645L27.5258 43.9437L27.5959 44.022L27.6672 44.0996L27.7386 44.1761L27.811 44.2522L27.8841 44.3272L27.9576 44.4014L28.0321 44.4748L28.1071 44.5473L28.1828 44.6191L28.2591 44.6899L28.336 44.7598L28.4136 44.829L28.4917 44.8972L28.5704 44.9645L28.6497 45.0311L28.7295 45.0967L28.8101 45.1614L28.8912 45.2252L28.9726 45.2881L29.0547 45.3501L29.1373 45.4113L29.2204 45.4715L29.304 45.5308L29.3881 45.5892L29.4727 45.6467L29.5578 45.7032L29.6432 45.7587L29.729 45.8134L29.8157 45.8673L29.9024 45.9199L29.9896 45.9718L30.0774 46.0228L30.1652 46.0726L30.2536 46.1217L30.3427 46.1699L30.4318 46.217L30.5213 46.2631L30.611 46.3082L30.7015 46.3525L30.7917 46.3957L30.8828 46.4381L30.9739 46.4795L31.0651 46.5197L31.157 46.5592L31.249 46.5976L31.3411 46.6351L31.4336 46.6717L31.5263 46.7071L31.6195 46.7416L31.7123 46.7752L31.806 46.8079L31.8993 46.8394L31.993 46.87L32.087 46.8998L32.1812 46.9285L32.2753 46.9561L32.3696 46.9829L32.4643 47.0085L32.5589 47.0334L32.6536 47.0571L32.7484 47.08L32.8432 47.1017L32.9381 47.1225L33.0333 47.1425L33.1284 47.1613L33.2235 47.1793L33.3187 47.1962L33.414 47.2123L33.5092 47.2272L33.6045 47.2413L33.6995 47.2543L33.7948 47.2663L33.8899 47.2775L33.9852 47.2877L34.0803 47.2968L34.1755 47.3051L34.2704 47.3124L34.3652 47.3188L34.4602 47.3241L34.5549 47.3285L34.6493 47.3321L34.7441 47.3345L34.8383 47.3361L34.9325 47.3368L35.0266 47.3364L35.1204 47.3353L35.2144 47.333L35.3081 47.3299L35.4013 47.3261L35.4945 47.321L35.5878 47.3152L35.6803 47.3084L35.773 47.3007L35.8652 47.2921L35.9575 47.2827L36.0493 47.2722L36.1407 47.261L36.2323 47.2488L36.3232 47.2356L36.4138 47.2217L36.5045 47.2069L36.5946 47.1912L36.6844 47.1746L36.774 47.1571L36.8633 47.1387L36.9519 47.1196L37.0402 47.0996L37.1286 47.0787L37.2164 47.0569L37.3037 47.0345L37.3907 47.0111L37.4773 46.9869L37.5638 46.9618L37.6495 46.936L37.7346 46.9093L37.82 46.8817L37.9044 46.8535L37.9885 46.8246L38.0721 46.7947L38.1552 46.764L38.2381 46.7325L38.3204 46.7004L38.4021 46.6674L38.4834 46.6339L38.5643 46.5993L38.6448 46.564L38.7243 46.5282L38.8039 46.4915L38.8826 46.4541L38.9607 46.416L39.0386 46.3772L39.1156 46.3377L39.1924 46.2975L39.2685 46.2564L39.344 46.2149L39.4188 46.1726L39.4933 46.1296L39.5672 46.086L39.6403 46.0416L39.7128 45.9967L39.7849 45.9511L39.8563 45.9049L39.9273 45.858L39.9974 45.8106L40.067 45.7624L40.136 45.7137L40.2042 45.6645L40.2719 45.6145L40.339 45.564L40.4053 45.5129L40.4711 45.4613L40.5364 45.409L40.6006 45.3564L40.6644 45.3032L40.7274 45.2493L40.7898 45.1949L40.8516 45.14L40.9127 45.0845L40.973 45.0287L41.0325 44.9723L41.0915 44.9153L41.1498 44.8579L41.2075 44.8001L41.2643 44.7418L41.3203 44.6829L41.3756 44.6238L41.4305 44.5639L41.4842 44.504L41.5377 44.4433L41.5901 44.3822L41.6417 44.321L41.693 44.259L41.743 44.197L41.7927 44.1343L41.8415 44.0715L41.8894 44.0082L41.9368 43.9444L41.9833 43.8806L42.029 43.816L42.0742 43.7512L42.1183 43.6864L42.1618 43.6209L42.2047 43.5553L42.2464 43.4894L42.2877 43.4231L42.3281 43.3566L42.3677 43.2897L42.4066 43.2226L42.4446 43.1553L42.482 43.0877L42.5185 43.0197L42.5542 42.9519L42.5891 42.8835L42.6234 42.815L42.6568 42.7463L42.6894 42.6772L42.7213 42.6082L42.7523 42.5389L42.7825 42.4696L42.812 42.3998L42.8406 42.3301L42.8687 42.2598L42.8956 42.1902L42.9221 42.1194L42.9474 42.0498L42.9722 41.979L42.9963 41.9082L43.0193 41.8377L43.0417 41.767L43.0633 41.6964L43.0842 41.6249L43.104 41.5545L43.1235 41.4829L43.1419 41.4124L43.1596 41.341L43.1764 41.2696L43.1925 41.1986L43.2078 41.1278L43.2224 41.0561L43.2362 40.9851L43.2492 40.9136L43.2614 40.8428L43.2729 40.7717L43.2836 40.7004L43.2935 40.6291L43.3026 40.558L43.311 40.4873L43.3187 40.4166L43.3255 40.3454L43.3316 40.2748L43.337 40.204L43.3415 40.1334L43.3454 40.0629L43.3485 39.9926L43.3508 39.9226L43.3524 39.8522L43.3534 39.7819L43.3536 39.7123L43.3529 39.6426L43.3516 39.5731L43.3495 39.5038L43.3467 39.4342L43.3432 39.3658L43.339 39.296L43.3341 39.228L43.3284 39.1597L43.3221 39.0908L43.3149 39.0228L43.3073 38.9554L43.2987 38.8871L43.2896 38.8202L43.2797 38.7528L43.2693 38.6864L43.2579 38.6194L43.2461 38.5528L43.2336 38.4869L43.2204 38.4212L43.2065 38.3553L43.1919 38.2902L43.1768 38.2251L43.1609 38.1605L43.1445 38.0963L43.1271 38.0317L43.1096 37.9684L43.0911 37.9045L43.0721 37.8416L43.0524 37.7788L43.0321 37.7165L43.0112 37.6543L42.9896 37.5923L42.9677 37.5312L42.945 37.4704L42.9216 37.4093L42.8977 37.3493L42.8732 37.2889L42.8484 37.2299L42.8226 37.1704L42.7966 37.1118L42.7698 37.0536L42.7425 36.9955L42.7148 36.9381L42.6864 36.8809L42.6575 36.8241L42.6281 36.7679L42.598 36.7121L42.5677 36.6567L42.5367 36.6017L42.505 36.5472L42.4732 36.4931L42.4407 36.4395L42.4076 36.3861L42.3742 36.3337L42.3403 36.2814L42.3058 36.2296L42.2709 36.1782L42.2357 36.1275L42.1998 36.077L42.1636 36.0272L42.1269 35.9778L42.0898 35.929L42.0524 35.8806L42.0143 35.8326L41.976 35.7853L41.9372 35.7384L41.898 35.692L41.8584 35.646L41.8187 35.6007L41.7782 35.5559L41.7375 35.5116L41.6964 35.4676L41.655 35.4244L41.6131 35.3817L41.5709 35.3394L41.5286 35.2978L41.4857 35.2567L41.4427 35.2162L41.3989 35.1759L41.3553 35.1364L41.3112 35.0973L41.2669 35.059L41.2221 35.021L41.1771 34.9838L41.1318 34.947L41.0864 34.9108L41.0406 34.8751L40.9945 34.8399L40.9482 34.8054L40.9016 34.7713L40.8547 34.7379L40.8078 34.7051L40.7605 34.6726L40.7131 34.641L40.6654 34.6098L40.6174 34.5791L40.5695 34.5491L40.5209 34.5196L40.4726 34.4907L40.424 34.4624L40.3752 34.4347L40.326 34.4074L40.2769 34.3808L40.2277 34.3546L40.1782 34.3291L40.1289 34.3043L40.0789 34.2798L40.0292 34.2561L39.9792 34.233L39.9292 34.2103L39.879 34.1882L39.8286 34.1666L39.7786 34.1459L39.7279 34.1256L39.6773 34.1058L39.6268 34.0866L39.5761 34.0679L39.5255 34.0499L39.4747 34.0324L39.4239 34.0153L39.3732 33.9991L39.3222 33.9832L39.2713 33.9679L39.2206 33.9533L39.1693 33.9392L39.1187 33.9257L39.0677 33.9127L39.0167 33.9002L38.9657 33.8884L38.9149 33.877L38.8639 33.8663L38.8131 33.8561L38.7625 33.8463L38.7118 33.8373L38.6609 33.8287L38.6105 33.8207L38.5596 33.8132L38.5094 33.8063L38.4588 33.7998L38.4084 33.7939L38.3584 33.7886L38.3081 33.7838L38.2581 33.7795L38.2081 33.7757L38.1583 33.7725L38.1084 33.7697L38.0588 33.7676L38.0096 33.766L37.9601 33.7647L37.9109 33.764L37.8617 33.7639L37.8128 33.7644L37.764 33.7652L37.7154 33.7665L37.6669 33.7684L37.6188 33.7707L37.5704 33.7736L37.5227 33.7769L37.475 33.7806L37.4274 33.785L37.3802 33.7897L37.3328 33.7949L37.286 33.8006L37.2393 33.8067L37.1928 33.8134L37.1464 33.8205L37.1005 33.828L37.0545 33.836L37.0092 33.8444L36.9636 33.8533L36.9187 33.8626L36.8737 33.8723L36.8292 33.8825Z" fill="white"/>
</svg>
