<svg width="251" height="48" viewBox="0 0 251 48" fill="none" xmlns="http://www.w3.org/2000/svg">
<g clip-path="url(#clip0_2495_1977)">
<g clip-path="url(#clip1_2495_1977)">
<path d="M27.3953 9.34592C26.854 4.70685 26.2824 -0.191301 26.2824 -5.87891H31.3895C31.3895 -0.255184 30.8206 4.63674 30.28 9.28102C29.8396 13.0658 29.4182 16.6862 29.34 20.4042C31.9044 17.7294 34.1476 14.8932 36.4974 11.9223C39.3947 8.25926 42.4543 4.39159 46.4758 0.369974L50.0871 3.98127C46.1105 7.95786 42.2486 11.0145 38.5825 13.9164L38.579 13.919C35.5928 16.2831 32.7361 18.5444 30.0528 21.117C33.7571 21.0388 37.3487 20.6197 41.1108 20.1806C45.75 19.6392 50.6484 19.0676 56.3359 19.0676V24.1746C50.7125 24.1746 45.8205 23.6055 41.1764 23.0651L41.173 23.0648C37.389 22.6246 33.7697 22.2035 30.0528 22.1252C32.7258 24.6876 35.5605 26.9298 38.5295 29.2781L38.5342 29.282C42.1974 32.1796 46.0652 35.239 50.0871 39.261L46.4758 42.8723C42.4992 38.8958 39.4427 35.0342 36.5412 31.3683L36.5343 31.3588L36.5285 31.3513C34.1675 28.3697 31.9089 25.5176 29.34 22.838C29.4182 26.556 29.8396 30.1763 30.28 33.9612C30.8206 38.6055 31.3895 43.4973 31.3895 49.1211H26.2824C26.2824 43.4335 26.854 38.5354 27.3953 33.8963L27.3965 33.8887C27.8349 30.1292 28.2536 26.5397 28.3319 22.838C25.763 25.5176 23.5044 28.3697 21.1434 31.3513L21.1376 31.3588L21.1307 31.3683C18.2292 35.0342 15.1727 38.8958 11.1961 42.8723L7.58482 39.261C11.6066 35.239 15.4745 32.1796 19.1376 29.282L19.1423 29.2781C22.1114 26.9298 24.9461 24.6876 27.6191 22.1252C23.9011 22.2037 20.2806 22.6248 16.4955 23.0651C11.8514 23.6055 6.95947 24.1746 1.33594 24.1746V19.0676C7.02354 19.0676 11.922 19.6392 16.561 20.1806C20.3232 20.6197 23.9148 21.0388 27.6191 21.117C24.9347 18.5434 22.0769 16.2814 19.0894 13.9164C15.4232 11.0145 11.5613 7.95786 7.58482 3.98127L11.1961 0.369974C15.2175 4.39159 18.2772 8.25926 21.1744 11.9223C23.5243 14.8931 25.7675 17.7293 28.3319 20.4039C28.2536 16.7023 27.8349 13.113 27.3965 9.35348L27.3953 9.34592Z" fill="white"/>
</g>
<path d="M78.7577 32.6087H86.2178V37.005H73.0625V13.625H78.7577V32.6087Z" fill="white"/>
<path d="M96.3926 37.2693C94.5719 37.2693 92.9288 36.8807 91.4634 36.1036C90.0203 35.3265 88.8767 34.2164 88.033 32.7732C87.2116 31.3299 86.8008 29.6425 86.8008 27.7107C86.8008 25.8014 87.2226 24.1249 88.0663 22.6817C88.9101 21.2164 90.0646 20.0951 91.53 19.318C92.9955 18.5409 94.6385 18.1523 96.4592 18.1523C98.2798 18.1523 99.9229 18.5409 101.388 19.318C102.854 20.0951 104.008 21.2164 104.852 22.6817C105.696 24.1249 106.118 25.8014 106.118 27.7107C106.118 29.6202 105.684 31.3077 104.819 32.7732C103.975 34.2164 102.809 35.3265 101.322 36.1036C99.8563 36.8807 98.2132 37.2693 96.3926 37.2693ZM96.3926 32.3401C97.4805 32.3401 98.4019 31.9406 99.1569 31.1412C99.934 30.3419 100.323 29.1985 100.323 27.7107C100.323 26.2232 99.945 25.0798 99.1901 24.2804C98.4574 23.4811 97.5471 23.0814 96.4592 23.0814C95.349 23.0814 94.4276 23.4811 93.6948 24.2804C92.9621 25.0575 92.5958 26.2009 92.5958 27.7107C92.5958 29.1985 92.9511 30.3419 93.6616 31.1412C94.3943 31.9406 95.3047 32.3401 96.3926 32.3401Z" fill="white"/>
<path d="M115.201 18.1523C116.511 18.1523 117.654 18.4188 118.631 18.9517C119.63 19.4844 120.396 20.184 120.929 21.0498V18.4188H126.624V36.9694C126.624 38.6791 126.28 40.2223 125.592 41.5988C124.926 42.9977 123.893 44.1078 122.495 44.9293C121.118 45.7509 119.397 46.1617 117.332 46.1617C114.579 46.1617 112.348 45.5067 110.638 44.1967C108.928 42.9088 107.951 41.1548 107.707 38.9344H113.336C113.513 39.6449 113.935 40.2001 114.601 40.5998C115.267 41.0215 116.089 41.2325 117.066 41.2325C118.243 41.2325 119.175 40.8883 119.863 40.2001C120.574 39.534 120.929 38.4572 120.929 36.9694V34.3385C120.374 35.2043 119.608 35.9149 118.631 36.4699C117.654 37.0028 116.511 37.2693 115.201 37.2693C113.669 37.2693 112.281 36.8807 111.038 36.1036C109.794 35.3043 108.806 34.183 108.074 32.7398C107.363 31.2744 107.008 29.587 107.008 27.6775C107.008 25.768 107.363 24.0917 108.074 22.6485C108.806 21.2052 109.794 20.0951 111.038 19.318C112.281 18.5409 113.669 18.1523 115.201 18.1523ZM120.929 27.7107C120.929 26.2898 120.53 25.1685 119.73 24.347C118.953 23.5256 117.998 23.1148 116.866 23.1148C115.734 23.1148 114.768 23.5256 113.968 24.347C113.191 25.1464 112.803 26.2565 112.803 27.6775C112.803 29.0985 113.191 30.2309 113.968 31.0746C114.768 31.8961 115.734 32.3069 116.866 32.3069C117.998 32.3069 118.953 31.8961 119.73 31.0746C120.53 30.253 120.929 29.1319 120.929 27.7107Z" fill="white"/>
<path d="M138.205 37.2693C136.384 37.2693 134.741 36.8807 133.276 36.1036C131.833 35.3265 130.689 34.2164 129.846 32.7732C129.024 31.3299 128.613 29.6425 128.613 27.7107C128.613 25.8014 129.035 24.1249 129.879 22.6817C130.723 21.2164 131.877 20.0951 133.342 19.318C134.808 18.5409 136.451 18.1523 138.272 18.1523C140.092 18.1523 141.735 18.5409 143.201 19.318C144.666 20.0951 145.821 21.2164 146.664 22.6817C147.508 24.1249 147.93 25.8014 147.93 27.7107C147.93 29.6202 147.497 31.3077 146.631 32.7732C145.787 34.2164 144.622 35.3265 143.134 36.1036C141.669 36.8807 140.026 37.2693 138.205 37.2693ZM138.205 32.3401C139.293 32.3401 140.214 31.9406 140.969 31.1412C141.747 30.3419 142.135 29.1985 142.135 27.7107C142.135 26.2232 141.757 25.0798 141.003 24.2804C140.27 23.4811 139.36 23.0814 138.272 23.0814C137.162 23.0814 136.24 23.4811 135.507 24.2804C134.775 25.0575 134.408 26.2009 134.408 27.7107C134.408 29.1985 134.764 30.3419 135.474 31.1412C136.207 31.9406 137.117 32.3401 138.205 32.3401Z" fill="white"/>
<path d="M152.815 16.4895C151.816 16.4895 150.994 16.2009 150.351 15.6236C149.729 15.0241 149.418 14.2914 149.418 13.4255C149.418 12.5374 149.729 11.8046 150.351 11.2274C150.994 10.6279 151.816 10.3281 152.815 10.3281C153.792 10.3281 154.591 10.6279 155.213 11.2274C155.857 11.8046 156.179 12.5374 156.179 13.4255C156.179 14.2914 155.857 15.0241 155.213 15.6236C154.591 16.2009 153.792 16.4895 152.815 16.4895ZM155.646 18.4212V37.0053H149.951V18.4212H155.646Z" fill="white"/>
<path d="M164.468 21.0498C165.023 20.184 165.789 19.4844 166.767 18.9517C167.744 18.4188 168.887 18.1523 170.197 18.1523C171.729 18.1523 173.117 18.5409 174.36 19.318C175.604 20.0951 176.581 21.2052 177.291 22.6485C178.023 24.0917 178.391 25.768 178.391 27.6775C178.391 29.587 178.023 31.2744 177.291 32.7398C176.581 34.183 175.604 35.3043 174.36 36.1036C173.117 36.8807 171.729 37.2693 170.197 37.2693C168.908 37.2693 167.767 37.0028 166.767 36.4699C165.789 35.937 165.023 35.2488 164.468 34.4051V45.8619H158.773V18.4188H164.468V21.0498ZM172.596 27.6775C172.596 26.2565 172.196 25.1464 171.396 24.347C170.618 23.5256 169.654 23.1148 168.499 23.1148C167.367 23.1148 166.4 23.5256 165.6 24.347C164.825 25.1685 164.436 26.2898 164.436 27.7107C164.436 29.1319 164.825 30.253 165.6 31.0746C166.4 31.8961 167.367 32.3069 168.499 32.3069C169.631 32.3069 170.597 31.8961 171.396 31.0746C172.196 30.2309 172.596 29.0985 172.596 27.6775Z" fill="white"/>
<path d="M187.942 37.2693C186.322 37.2693 184.878 36.9917 183.612 36.4367C182.347 35.8815 181.347 35.1267 180.615 34.1719C179.883 33.1949 179.472 32.107 179.383 30.908H185.012C185.078 31.5519 185.378 32.0736 185.91 32.4733C186.444 32.873 187.099 33.0728 187.876 33.0728C188.586 33.0728 189.13 32.9396 189.507 32.6732C189.907 32.3846 190.107 32.0182 190.107 31.5741C190.107 31.0412 189.83 30.6527 189.275 30.4085C188.72 30.142 187.82 29.8535 186.576 29.5425C185.244 29.2317 184.134 28.9098 183.246 28.5767C182.359 28.2215 181.592 27.6775 180.949 26.9448C180.304 26.1899 179.983 25.1796 179.983 23.9141C179.983 22.8483 180.272 21.8825 180.849 21.0165C181.447 20.1285 182.313 19.429 183.446 18.9183C184.601 18.4077 185.967 18.1523 187.542 18.1523C189.873 18.1523 191.705 18.7296 193.038 19.8841C194.392 21.0388 195.17 22.5707 195.37 24.4802H190.107C190.018 23.8364 189.73 23.3257 189.241 22.9482C188.775 22.5707 188.154 22.382 187.376 22.382C186.71 22.382 186.199 22.5152 185.844 22.7817C185.489 23.0259 185.312 23.3701 185.312 23.8141C185.312 24.347 185.589 24.7467 186.144 25.0132C186.722 25.2796 187.609 25.5461 188.809 25.8123C190.184 26.1677 191.305 26.523 192.172 26.8782C193.038 27.2112 193.792 27.7662 194.436 28.5435C195.102 29.2983 195.447 30.3196 195.47 31.6075C195.47 32.6954 195.159 33.6723 194.536 34.5383C193.938 35.382 193.06 36.0482 191.905 36.5365C190.773 37.0251 189.452 37.2693 187.942 37.2693Z" fill="white"/>
<path d="M216.303 18.4219V37.0059H210.608V34.4748C210.03 35.2962 209.242 35.9624 208.243 36.473C207.266 36.9616 206.179 37.2057 204.979 37.2057C203.558 37.2057 202.303 36.8949 201.216 36.2732C200.127 35.6293 199.284 34.7078 198.685 33.509C198.085 32.3099 197.785 30.9001 197.785 29.2791V18.4219H203.446V28.5132C203.446 29.7566 203.769 30.7224 204.413 31.4107C205.056 32.099 205.922 32.4432 207.011 32.4432C208.121 32.4432 208.998 32.099 209.642 31.4107C210.285 30.7224 210.608 29.7566 210.608 28.5132V18.4219H216.303Z" fill="white"/>
<path d="M243.107 18.2188C245.416 18.2188 247.248 18.9181 248.603 20.317C249.978 21.7157 250.667 23.6584 250.667 26.1452V37.0026H245.006V26.9113C245.006 25.7123 244.683 24.7908 244.04 24.147C243.417 23.4808 242.553 23.1478 241.441 23.1478C240.332 23.1478 239.454 23.4808 238.811 24.147C238.19 24.7908 237.878 25.7123 237.878 26.9113V37.0026H232.216V26.9113C232.216 25.7123 231.895 24.7908 231.251 24.147C230.628 23.4808 229.762 23.1478 228.653 23.1478C227.543 23.1478 226.666 23.4808 226.022 24.147C225.399 24.7908 225.09 25.7123 225.09 26.9113V37.0026H219.395V18.4186H225.09V20.7499C225.667 19.9728 226.422 19.3621 227.354 18.9181C228.286 18.4518 229.341 18.2188 230.517 18.2188C231.917 18.2188 233.161 18.5184 234.248 19.1179C235.357 19.7175 236.224 20.5723 236.846 21.6825C237.49 20.661 238.367 19.8284 239.477 19.1846C240.586 18.5407 241.798 18.2188 243.107 18.2188Z" fill="white"/>
</g>
<defs>
<clipPath id="clip0_2495_1977">
<rect width="250" height="46.7742" fill="white" transform="translate(0.667969 0.613281)"/>
</clipPath>
<clipPath id="clip1_2495_1977">
<rect width="55" height="55" fill="white" transform="translate(1.33594 -5.87891)"/>
</clipPath>
</defs>
</svg>
