<svg width="253" height="66" viewBox="0 0 253 66" fill="none" xmlns="http://www.w3.org/2000/svg">
<path d="M75.2266 20.9029H81.3475V45.652H75.2266V20.9029ZM83.7755 36.3073C83.7755 30.1864 87.5297 26.5342 93.3242 26.5342C99.1187 26.5342 102.873 30.1864 102.873 36.3073C102.873 42.4283 99.2004 46.1009 93.3242 46.1009C87.4481 46.1009 83.7755 42.5303 83.7755 36.3073ZM96.7316 36.3073C96.7316 32.9408 95.4054 30.9617 93.3242 30.9617C91.2431 30.9617 89.9373 33.002 89.9373 36.3073C89.9373 39.6127 91.2227 41.6122 93.3242 41.6122C95.4258 41.6122 96.7316 39.7351 96.7316 36.3277V36.3073ZM105.178 46.8558H111.055C111.334 47.4771 111.807 47.9915 112.403 48.3224C112.998 48.6531 113.685 48.7829 114.36 48.6921C116.686 48.6921 117.91 47.4271 117.91 45.5908V42.1631H117.788C117.3 43.2136 116.509 44.0938 115.516 44.6904C114.523 45.2868 113.374 45.572 112.218 45.5092C107.749 45.5092 104.791 42.1019 104.791 36.2461C104.791 30.3904 107.606 26.6974 112.299 26.6974C113.492 26.6507 114.67 26.9696 115.677 27.6113C116.683 28.2532 117.47 29.1872 117.931 30.2884V26.8811H124.051V45.448C124.051 49.9163 120.114 52.6911 114.299 52.6911C108.892 52.6911 105.525 50.2632 105.178 46.8762V46.8558ZM117.931 36.2869C117.931 33.3081 116.563 31.431 114.401 31.431C112.238 31.431 110.912 33.2877 110.912 36.2869C110.912 39.2862 112.218 40.9797 114.401 40.9797C116.584 40.9797 117.931 39.327 117.931 36.3073V36.2869ZM126.357 36.2869C126.357 30.166 130.111 26.5138 135.906 26.5138C141.7 26.5138 145.475 30.166 145.475 36.2869C145.475 42.4079 141.802 46.0805 135.906 46.0805C130.009 46.0805 126.357 42.5303 126.357 36.3073V36.2869ZM139.313 36.2869C139.313 32.9204 137.987 30.9413 135.906 30.9413C133.825 30.9413 132.621 33.002 132.621 36.3277C132.621 39.6535 133.906 41.6326 135.987 41.6326C138.069 41.6326 139.313 39.7351 139.313 36.3277V36.2869ZM147.801 22.4332C147.785 21.8151 147.953 21.2063 148.283 20.6838C148.613 20.1613 149.092 19.7486 149.657 19.4982C150.222 19.2477 150.849 19.1707 151.458 19.2769C152.067 19.3831 152.63 19.6677 153.078 20.0947C153.525 20.5217 153.835 21.0718 153.969 21.6754C154.103 22.2789 154.055 22.9085 153.83 23.4847C153.606 24.0607 153.216 24.5573 152.709 24.9113C152.202 25.2653 151.602 25.461 150.984 25.4732C150.574 25.5014 150.163 25.4445 149.776 25.3061C149.389 25.1678 149.036 24.9511 148.737 24.6693C148.438 24.3878 148.2 24.0473 148.039 23.6694C147.878 23.2917 147.797 22.8847 147.801 22.474V22.4332ZM147.801 26.9219H153.922V45.652H147.801V26.9219ZM176.141 36.2869C176.141 42.4079 173.427 45.8969 168.775 45.8969C167.583 45.9734 166.395 45.6818 165.373 45.0616C164.351 44.4411 163.545 43.5219 163.062 42.4283H162.94V51.6506H156.819V26.8811H162.94V30.2272H163.062C163.522 29.1154 164.314 28.1724 165.328 27.5262C166.343 26.88 167.533 26.5622 168.735 26.6158C173.427 26.6974 176.223 30.2068 176.223 36.3277L176.141 36.2869ZM170.02 36.2869C170.02 33.3081 168.653 31.4106 166.511 31.4106C164.368 31.4106 163.001 33.3285 162.981 36.2869C162.96 39.2454 164.368 41.1429 166.511 41.1429C168.653 41.1429 170.02 39.2862 170.02 36.3277V36.2869ZM186.649 26.4934C191.729 26.4934 194.81 28.901 194.953 32.7572H189.383C189.383 31.431 188.281 30.5944 186.587 30.5944C184.894 30.5944 184.139 31.2473 184.139 32.2063C184.139 33.1652 184.812 33.4713 186.179 33.7569L190.097 34.5527C193.831 35.3484 195.422 36.8582 195.422 39.6943C195.422 43.5709 191.892 46.0601 186.689 46.0601C181.487 46.0601 178.079 43.5709 177.814 39.7555H183.711C183.894 41.1429 184.996 41.959 186.791 41.959C188.587 41.959 189.403 41.3673 189.403 40.388C189.403 39.4086 188.832 39.2046 187.363 38.8986L183.833 38.1436C180.181 37.3887 178.263 35.4504 178.263 32.594C178.304 28.9214 181.589 26.5342 186.649 26.5342V26.4934ZM215.846 45.6112H209.949V42.1223H209.827C209.502 43.2936 208.788 44.3189 207.801 45.0279C206.813 45.7367 205.613 46.0866 204.399 46.0193C203.469 46.0721 202.539 45.9248 201.671 45.5871C200.803 45.2495 200.017 44.7296 199.367 44.0622C198.717 43.395 198.218 42.5958 197.904 41.7191C197.589 40.8424 197.467 39.9083 197.544 38.9802V26.8811H203.665V37.5723C203.665 39.7963 204.807 40.9797 206.705 40.9797C207.15 40.9805 207.59 40.8864 207.996 40.7034C208.4 40.5204 208.764 40.2527 209.057 39.9185C209.349 39.5841 209.57 39.1909 209.698 38.7653C209.827 38.3395 209.865 37.891 209.806 37.4499V26.8811H215.927L215.846 45.6112ZM218.804 26.8811H224.721V30.4924H224.843C225.168 29.3366 225.868 28.3209 226.831 27.6048C227.794 26.8886 228.969 26.512 230.169 26.5342C231.391 26.4365 232.603 26.8019 233.568 27.558C234.531 28.3142 235.176 29.4053 235.371 30.6148H235.494C235.863 29.3925 236.63 28.3283 237.673 27.5895C238.714 26.8507 239.972 26.4793 241.248 26.5342C242.08 26.5062 242.908 26.6538 243.68 26.9672C244.453 27.2803 245.149 27.7527 245.726 28.3529C246.304 28.9534 246.748 29.6685 247.032 30.4518C247.313 31.2351 247.43 32.0694 247.369 32.9V45.652H241.248V34.5323C241.248 32.4919 240.329 31.5534 238.616 31.5534C238.234 31.5501 237.855 31.6289 237.506 31.7844C237.157 31.9398 236.845 32.1683 236.592 32.4546C236.339 32.7409 236.149 33.0779 236.037 33.4433C235.924 33.809 235.894 34.1942 235.943 34.5731V45.652H230.128V34.4507C230.128 32.5736 229.21 31.5534 227.537 31.5534C227.151 31.5536 226.767 31.6356 226.417 31.7942C226.064 31.9529 225.747 32.1845 225.492 32.4736C225.235 32.7627 225.043 33.103 224.927 33.4721C224.813 33.841 224.776 34.2301 224.823 34.6139V45.652H218.702L218.804 26.8811Z" fill="white"/>
<path d="M58.1095 22.0252C57.0712 19.651 55.697 17.4384 54.0289 15.4553C51.5631 12.4363 48.4859 9.97376 44.9998 8.22972C41.5137 6.48569 37.6977 5.4997 33.8032 5.33666C29.9086 5.17362 26.0236 5.83721 22.4039 7.2838C18.7843 8.73037 15.512 10.9271 12.8025 13.7295C10.093 16.5318 8.00771 19.8762 6.68384 23.5425C5.35998 27.2088 4.82756 31.114 5.12165 35.0008C5.41576 38.8878 6.52968 42.6683 8.39012 46.0936C10.2506 49.5191 12.8154 52.5117 15.9157 54.8743C17.905 56.4207 20.1031 57.6777 22.4447 58.6081C25.7276 59.9535 29.2412 60.6464 32.7891 60.6485C40.1127 60.6323 47.131 57.713 52.3058 52.5306C57.4805 47.3482 60.3894 40.3256 60.3947 33.0021C60.4 29.2244 59.622 25.4868 58.1095 22.0252ZM32.7687 10.9462C35.9549 10.9459 39.1025 11.6422 41.991 12.9865C41.2867 13.2909 40.546 13.5034 39.7874 13.619C37.2913 13.9803 34.979 15.1392 33.1956 16.9227C31.4121 18.7061 30.2532 21.0185 29.8919 23.5146C29.7333 24.9145 29.0965 26.2168 28.0892 27.2019C27.0819 28.1869 25.7657 28.7941 24.3626 28.9214C21.8665 29.2828 19.5541 30.4417 17.7707 32.2251C15.9872 34.0086 14.8284 36.3209 14.467 38.817C14.3447 40.1481 13.7768 41.399 12.8552 42.3672C11.2651 39.0074 10.5507 35.2997 10.7787 31.5896C11.0066 27.8794 12.1694 24.2873 14.1589 21.1472C16.1483 18.0073 18.8998 15.4217 22.1572 13.6309C25.4146 11.8402 29.0721 10.9026 32.7891 10.9054L32.7687 10.9462ZM15.8953 47.2843C16.1401 47.0599 16.3849 46.8559 16.6298 46.611C18.445 44.8513 19.6101 42.5282 19.9351 40.0208C20.0669 38.6113 20.6961 37.2949 21.7102 36.3074C22.6861 35.2917 23.9994 34.6676 25.4032 34.5527C27.8993 34.1914 30.2116 33.0325 31.995 31.249C33.7785 29.4656 34.9374 27.1533 35.2987 24.6572C35.3871 23.183 36.0196 21.7942 37.0738 20.7602C38.0738 19.7642 39.3996 19.1628 40.8076 19.0667C43.1007 18.7512 45.2394 17.7317 46.9286 16.149C48.852 17.7447 50.4814 19.6643 51.7437 21.8211C51.6662 21.9258 51.5772 22.0217 51.4785 22.1068C50.5046 23.1314 49.1929 23.7692 47.7855 23.9022C45.2867 24.2573 42.9709 25.4141 41.1863 27.1986C39.4018 28.9833 38.2449 31.299 37.8899 33.7978C37.7461 35.2024 37.1211 36.5141 36.121 37.5106C35.1206 38.5073 33.8066 39.1273 32.4015 39.2659C29.898 39.6244 27.5771 40.781 25.7833 42.5637C23.9896 44.3465 22.8187 46.6602 22.4447 49.1614C22.3349 50.1586 21.9923 51.1161 21.4449 51.9567C19.3516 50.7137 17.4767 49.1353 15.8953 47.2843ZM32.7687 55.16C30.6984 55.1622 28.6379 54.8737 26.6477 54.3031C27.3286 53.034 27.7711 51.6508 27.9536 50.2224C28.0966 48.8209 28.7187 47.5116 29.7148 46.5156C30.7108 45.5195 32.0201 44.8974 33.4216 44.7543C35.9214 44.3971 38.2384 43.24 40.0259 41.4562C41.8133 39.6725 42.9752 37.3578 43.3376 34.8588C43.4806 33.4573 44.1027 32.148 45.0988 31.1519C46.0949 30.1558 47.4042 29.5337 48.8057 29.3907C50.6868 29.1461 52.4799 28.4456 54.0289 27.3504C54.8891 30.6106 54.9909 34.0245 54.3268 37.3302C53.6626 40.636 52.2499 43.7458 50.1974 46.4209C48.1448 49.0957 45.5069 51.2652 42.4855 52.7624C39.4644 54.2596 36.1406 55.0449 32.7687 55.058V55.16Z" fill="white"/>
</svg>
