<svg width="251" height="76" viewBox="0 0 251 76" fill="none" xmlns="http://www.w3.org/2000/svg">
<path d="M44.3281 21.6915H48.116V48.0552H59.4796V51.843H44.3281V21.6915ZM71.2789 21.6915C73.5264 21.6915 75.7234 22.358 77.5921 23.6067C79.4609 24.8554 80.9175 26.63 81.7776 28.7065C82.6376 30.783 82.8626 33.0678 82.4241 35.272C81.9857 37.4764 80.9035 39.5012 79.3141 41.0904C77.7249 42.6798 75.7001 43.762 73.4957 44.2004C71.2916 44.6389 69.0067 44.4139 66.9302 43.5538C64.8537 42.6936 63.0791 41.2372 61.8304 39.3684C60.5817 37.4997 59.9152 35.3027 59.9152 33.0552C59.9152 31.5629 60.2092 30.0851 60.7802 28.7065C61.3512 27.3277 62.1884 26.075 63.2437 25.0199C64.2988 23.9646 65.5514 23.1275 66.9302 22.5565C68.3088 21.9855 69.7866 21.6915 71.2789 21.6915ZM71.2789 40.6309C72.7772 40.6309 74.242 40.1866 75.4878 39.3542C76.7336 38.5216 77.7046 37.3385 78.2779 35.9542C78.8514 34.5699 79.0014 33.0468 78.709 31.5771C78.4168 30.1076 77.6952 28.7578 76.6357 27.6983C75.5762 26.6389 74.2264 25.9173 72.7569 25.625C71.2872 25.3326 69.7641 25.4826 68.3798 26.0561C66.9955 26.6294 65.8122 27.6004 64.9798 28.8463C64.1474 30.0921 63.7031 31.5569 63.7031 33.0552C63.7132 35.0578 64.5156 36.975 65.9353 38.3875C67.355 39.8 69.2762 40.593 71.2789 40.593V40.6309ZM63.7031 48.093H78.8546V51.8809H63.7031V48.093ZM112.188 51.8809H108.4V49.1726C105.957 50.8824 103.049 51.8014 100.067 51.8052C97.5241 51.8222 95.0181 51.1991 92.7796 49.9932C90.541 48.7872 88.642 47.0374 87.2575 44.9048C85.8728 42.7722 85.0471 40.3254 84.8565 37.7898C84.6658 35.2544 85.1164 32.7116 86.1666 30.3961C87.2168 28.0803 88.8329 26.0661 90.8658 24.5393C92.899 23.0122 95.2836 22.0213 97.8001 21.658C100.317 21.2946 102.884 21.5705 105.266 22.4601C107.648 23.3497 109.768 24.8243 111.43 26.7483L108.646 29.2294C107.382 27.8158 105.784 26.7411 103.998 26.1035C102.212 25.4656 100.295 25.2849 98.4209 25.5779C96.5471 25.8709 94.7766 26.6283 93.2704 27.7807C91.7643 28.9334 90.5706 30.4444 89.7982 32.1766C89.0257 33.9086 88.699 35.8063 88.8478 37.697C88.9967 39.5877 89.6162 41.411 90.6503 43.0008C91.6844 44.5906 93.0997 45.8964 94.7677 46.7991C96.4355 47.7017 98.3029 48.1726 100.199 48.1688C101.773 48.172 103.329 47.8353 104.761 47.1815C106.193 46.5277 107.466 45.5724 108.495 44.3809H98.2675V40.593H112.226L112.188 51.8809ZM126.127 21.7673C128.375 21.7673 130.572 22.4338 132.441 23.6824C134.309 24.9311 135.766 26.7057 136.626 28.7822C137.486 30.8588 137.711 33.1436 137.273 35.3478C136.834 37.5521 135.752 39.5769 134.163 41.1661C132.573 42.7555 130.549 43.8377 128.344 44.2762C126.14 44.7146 123.855 44.4896 121.779 43.6296C119.702 42.7694 117.928 41.3129 116.679 39.4442C115.43 37.5754 114.764 35.3785 114.764 33.1309C114.754 31.629 115.042 30.1402 115.611 28.7502C116.179 27.3603 117.018 26.0968 118.079 25.0332C119.139 23.9694 120.399 23.1264 121.787 22.5527C123.175 21.9792 124.663 21.6864 126.165 21.6915L126.127 21.7673ZM126.127 40.7067C127.626 40.7067 129.09 40.2624 130.336 39.43C131.582 38.5974 132.553 37.4142 133.126 36.03C133.7 34.6457 133.85 33.1226 133.557 31.6529C133.265 30.1834 132.544 28.8336 131.484 27.7741C130.425 26.7146 129.075 25.993 127.605 25.7008C126.136 25.4084 124.613 25.5584 123.228 26.1319C121.844 26.7052 120.661 27.6762 119.828 28.922C118.996 30.1678 118.552 31.6326 118.552 33.1309C118.582 35.1269 119.398 37.0305 120.824 38.4279C122.249 39.825 124.169 40.6033 126.165 40.593L126.127 40.7067ZM118.552 48.1688H133.703V51.9567H118.552V48.1688ZM141.525 21.6915H145.313V51.8052H141.525V21.6915ZM150.559 21.6915H154.347C154.542 21.6709 154.739 21.6709 154.934 21.6915C156.521 21.5194 158.125 21.6834 159.644 22.1726C161.163 22.662 162.562 23.4656 163.749 24.5313C164.937 25.597 165.887 26.901 166.537 28.3582C167.187 29.8154 167.523 31.3932 167.523 32.9889C167.523 34.5845 167.187 36.1624 166.537 37.6196C165.887 39.0767 164.937 40.3807 163.749 41.4464C162.562 42.5122 161.163 43.3158 159.644 43.8052C158.125 44.2944 156.521 44.4584 154.934 44.2862H154.347V51.862H150.559V21.6915ZM154.347 25.4794V40.4605H154.934C156.004 40.6029 157.092 40.5152 158.125 40.2029C159.158 39.8908 160.113 39.3614 160.925 38.6504C161.737 37.9394 162.388 37.0631 162.833 36.0802C163.279 35.0972 163.51 34.0303 163.51 32.951C163.51 31.8716 163.279 30.8048 162.833 29.8218C162.388 28.8389 161.737 27.9625 160.925 27.2516C160.113 26.5404 159.158 26.0112 158.125 25.6989C157.092 25.3868 156.004 25.2991 154.934 25.4415C154.728 25.4629 154.525 25.5074 154.328 25.5741L154.347 25.4794ZM181.639 23.8696L178.836 26.0855C178.352 25.5802 177.734 25.2233 177.055 25.0571C176.376 24.8908 175.663 24.9218 175.001 25.1466C174.338 25.3713 173.754 25.7803 173.316 26.3258C172.878 26.8713 172.605 27.5304 172.529 28.2256V28.5286C172.529 30.1953 173.684 31.3127 175.938 31.4642C184.612 31.9946 188.589 36.0665 188.589 41.4453V41.7862C188.365 43.915 187.535 45.9347 186.196 47.6052C184.857 49.2756 183.067 50.5262 181.038 51.2086C179.009 51.8908 176.827 51.976 174.751 51.4538C172.675 50.9319 170.793 49.8245 169.328 48.2635L172.226 46.0286C172.9 46.7516 173.724 47.319 174.64 47.6919C175.555 48.0646 176.541 48.2339 177.529 48.1877C179.353 48.2839 181.144 47.6716 182.527 46.4786C183.911 45.2858 184.78 43.6046 184.953 41.7862V41.5211C184.953 36.4643 179.991 35.5362 175.692 35.1196C171.714 34.7408 168.855 32.2597 168.855 28.6802V28.5286C168.995 26.665 169.845 24.9264 171.23 23.6718C172.615 22.4171 174.429 21.7421 176.298 21.7862C177.288 21.7571 178.273 21.9357 179.19 22.3108C180.107 22.686 180.934 23.2493 181.62 23.9643L181.639 23.8696ZM203.419 47.9605C208.135 47.9605 211.866 42.8658 211.866 36.5968V21.4453H215.654V36.5968C215.654 44.9302 210.199 51.6536 203.495 51.6536C196.79 51.6536 191.336 44.9302 191.336 36.5968V21.4453H195.124V36.5968C194.972 42.9605 198.703 48.0552 203.4 48.0552L203.419 47.9605ZM244.726 51.7483H240.938V32.9983L232.207 44.362L223.476 32.9983V51.8052H219.688V21.6915L232.188 38.1499L244.688 21.6915L244.726 51.7483Z" fill="white"/>
<path d="M26.1451 17.1663C26.1451 14.4338 25.0597 11.8131 23.1275 9.88097C21.1953 7.94877 18.5746 6.86328 15.8421 6.86328C13.1096 6.86328 10.4889 7.94877 8.55675 9.88097C6.62455 11.8131 5.53906 14.4338 5.53906 17.1663V48.3216L14.0239 54.4012V69.2118H17.6603V54.4012L26.1451 48.3216V17.1663ZM22.5088 34.5906L17.6603 39.439V34.8936L22.5088 30.0451V34.5906ZM9.25118 30.0451L14.0997 34.8936V39.439L9.25118 34.5906V30.0451ZM22.5088 24.8936L15.8421 31.5603L9.17543 24.7421V20.1966L15.8421 26.8633L22.5088 20.1966V24.8936ZM15.8421 10.4996C17.3083 10.5061 18.7319 10.9931 19.8949 11.8859C21.058 12.7787 21.8963 14.0281 22.2815 15.4428L15.8421 21.8633L9.4027 15.4428C9.7738 14.014 10.6061 12.7477 11.7704 11.8402C12.9347 10.9327 14.3659 10.4349 15.8421 10.4239V10.4996ZM9.17543 46.4845V39.6663L14.0239 44.5148V49.9315L9.17543 46.4845ZM17.6603 49.9504V44.5148L22.5088 39.6663V46.4656L17.6603 49.9504Z" fill="white"/>
</svg>
