<svg width="29" height="27" viewBox="0 0 29 27" fill="none" xmlns="http://www.w3.org/2000/svg">
<path fill-rule="evenodd" clip-rule="evenodd" d="M21.2107 0.667969C25.6507 0.667969 28.9987 4.29064 28.9987 9.09464V18.252C28.9987 20.7106 28.1294 22.932 26.5494 24.508C25.132 25.92 23.2934 26.668 21.232 26.668H8.0947C6.03736 26.668 4.20003 25.9213 2.78136 24.508C1.20136 22.932 0.332031 20.7106 0.332031 18.252V9.09464C0.332031 4.29064 3.68003 0.667969 8.12003 0.667969H21.2107ZM21.2107 2.66797H8.12003C4.7667 2.66797 2.33203 5.37064 2.33203 9.09464V18.252C2.33203 20.176 2.99336 21.8946 4.19336 23.0906C5.22803 24.124 6.5787 24.668 8.0987 24.668H21.2107C21.2134 24.6653 21.224 24.668 21.232 24.668C22.7534 24.668 24.1027 24.124 25.1374 23.0906C26.3387 21.8946 26.9987 20.176 26.9987 18.252V9.09464C26.9987 5.37064 24.564 2.66797 21.2107 2.66797ZM23.312 8.8397C23.66 9.2677 23.5947 9.89704 23.1667 10.2464L17.2414 15.0624C16.492 15.657 15.596 15.9544 14.7014 15.9544C13.8094 15.9544 12.92 15.6597 12.176 15.0704L6.19603 10.249C5.76536 9.90237 5.6987 9.2717 6.04403 8.84237C6.39203 8.41437 7.02136 8.34637 7.4507 8.6917L13.4254 13.5077C14.176 14.1024 15.2334 14.1024 15.9894 13.5024L21.904 8.69437C22.3334 8.3437 22.9627 8.41037 23.312 8.8397Z" fill="#F2F2F2"/>
</svg>
